<svg xmlns="http://www.w3.org/2000/svg" width="51" height="51" viewBox="0 0 51 51">
  <g id="_3" data-name="3" transform="translate(-682.189 -752)">
    <g id="Group_42589" data-name="Group 42589" transform="translate(682.189 752)">
      <rect id="Rectangle_4733" data-name="Rectangle 4733" width="51" height="51" rx="25.5" transform="translate(0 0)" fill="#d20001"/>
      <g id="refresh" transform="translate(15.165 15.152)">
        <g id="Path_56358" data-name="Path 56358" transform="translate(-2 0.025)" fill="#fdfcfb">
          <path d="M 4.553982257843018 10.77056503295898 L 4.053982257843018 10.77056503295898 L 2.000002384185791 10.77056503295898 L 1.500002503395081 10.77056503295898 L 1.500002503395081 10.27056503295898 L 1.500002503395081 9.140874862670898 L 1.500002503395081 9.108405113220215 L 1.504202485084534 9.076204299926758 C 1.831012487411499 6.570684909820557 2.910072565078735 4.340024471282959 4.624722480773926 2.625394582748413 C 6.656272411346436 0.5938346982002258 9.371382713317871 -0.5249953269958496 12.26989269256592 -0.5249953269958496 C 14.99961948394775 -0.5249953269958496 17.56678771972656 0.4674230813980103 19.55342674255371 2.279929399490356 L 21.15923309326172 0.6741146445274353 L 22.01278305053711 -0.1794453263282776 L 22.01278305053711 1.027664661407471 L 22.01278305053711 6.162604808807373 L 22.01278305053711 6.662604808807373 L 21.51278305053711 6.662604808807373 L 16.37784194946289 6.662604808807373 L 15.17073249816895 6.662604808807373 L 16.0242919921875 5.809054851531982 L 17.39354705810547 4.43980073928833 C 15.93690395355225 3.236474514007568 14.09678745269775 2.554654598236084 12.26989269256592 2.554654598236084 C 10.22043704986572 2.554654598236084 8.316699028015137 3.322719573974609 6.76380729675293 4.776076316833496 C 5.537316799163818 6.00526762008667 4.753237247467041 7.63713550567627 4.553982257843018 9.374382972717285 L 4.553982257843018 10.27056503295898 L 4.553982257843018 10.77056503295898 Z" stroke="none"/>
          <path d="M 4.053982257843018 10.27056503295898 C 4.053982257843018 9.962464332580566 4.053982257843018 9.654364585876465 4.053982257843018 9.346274375915527 C 4.259372711181641 7.497694492340088 5.080962657928467 5.751814842224121 6.416052341461182 4.416724681854248 C 8.059232711791992 2.876244783401489 10.11321258544922 2.054654598236084 12.26989269256592 2.054654598236084 C 14.32386207580566 2.054654598236084 16.48054313659668 2.876244783401489 18.12372207641602 4.416724681854248 L 16.37784194946289 6.162604808807373 L 21.51278305053711 6.162604808807373 L 21.51278305053711 1.027664661407471 L 19.5615119934082 2.978944778442383 C 15.55625152587891 -1.026315450668335 8.983522415161133 -1.026315450668335 4.978272438049316 2.978944778442383 C 3.335082530975342 4.622124671936035 2.308102369308472 6.778804779052734 2.000002384185791 9.140874862670898 L 2.000002384185791 10.27056503295898 L 4.053982257843018 10.27056503295898 M 5.053982257843018 11.27056503295898 L 1.000002503395081 11.27056503295898 L 1.000002503395081 9.075934410095215 L 1.008402466773987 9.011534690856934 C 1.349602460861206 6.395694732666016 2.477852582931519 4.065144538879395 4.271172523498535 2.2718346118927 C 6.397162437438965 0.1458446681499481 9.237832069396973 -1.02499532699585 12.26989269256592 -1.02499532699585 C 14.96347332000732 -1.02499532699585 17.50587844848633 -0.1010830476880074 19.53050231933594 1.595740914344788 L 22.51278305053711 -1.386555314064026 L 22.51278305053711 7.162604808807373 L 13.96363258361816 7.162604808807373 L 16.63739204406738 4.488834381103516 C 15.34871196746826 3.568800687789917 13.80367565155029 3.054654598236084 12.26989269256592 3.054654598236084 C 10.35256290435791 3.054654598236084 8.569257736206055 3.774075746536255 7.111899852752686 5.135123252868652 C 5.974568843841553 6.277556896209717 5.245261669158936 7.790878772735596 5.053982257843018 9.403423309326172 L 5.053982257843018 11.27056503295898 Z" stroke="none" fill="#fdfcfb"/>
        </g>
        <g id="Path_56359" data-name="Path 56359" transform="translate(-1.973 0.296)" fill="#fdfcfb">
          <path d="M 12.24290370941162 20.76989555358887 C 9.498826026916504 20.76989555358887 6.932045936584473 19.78665161132812 4.959542751312256 17.99046516418457 L 3.353553533554077 19.59645462036133 L 2.500003337860107 20.45001411437988 L 2.500003337860107 19.24290466308594 L 2.500003337860107 14.10795497894287 L 2.500003337860107 13.60795497894287 L 3.000003337860107 13.60795497894287 L 8.134943008422852 13.60795497894287 L 9.342053413391113 13.60795497894287 L 8.488492965698242 14.46150493621826 L 7.118200778961182 15.83179759979248 C 8.596899032592773 17.06644439697266 10.35826587677002 17.71591567993164 12.24290370941162 17.71591567993164 C 14.29234886169434 17.71591567993164 16.19606590270996 16.9478588104248 17.74897766113281 15.49449253082275 C 19.15353584289551 14.08672428131104 19.95881271362305 12.08464241027832 19.95881271362305 10.00000476837158 L 19.95881271362305 9.500004768371582 L 20.45881271362305 9.500004768371582 L 22.51278305053711 9.500004768371582 L 23.01278305053711 9.500004768371582 L 23.01278305053711 10.00000476837158 C 23.01278305053711 12.87281513214111 21.87387275695801 15.65937519073486 19.8880729675293 17.64517402648926 C 17.87307357788086 19.66018486022949 15.15796375274658 20.76989555358887 12.24290370941162 20.76989555358887 Z" stroke="none"/>
          <path d="M 20.45881271362305 9.999994277954102 C 20.45881271362305 12.15667533874512 19.63722229003906 14.3133544921875 18.09674453735352 15.853835105896 C 16.45355224609375 17.39431381225586 14.39957332611084 18.21591567993164 12.24290370941162 18.21591567993164 C 10.08622360229492 18.21591567993164 8.032243728637695 17.39431381225586 6.389062881469727 15.853835105896 L 8.134943008422852 14.10795402526855 L 3.000003814697266 14.10795402526855 L 3.000003814697266 19.24290466308594 L 4.951272964477539 17.2916259765625 C 6.902563095092773 19.24290466308594 9.470033645629883 20.2698860168457 12.24290370941162 20.2698860168457 C 15.01577377319336 20.2698860168457 17.58324432373047 19.24290466308594 19.53452301025391 17.2916259765625 C 21.48579406738281 15.34034538269043 22.51278305053711 12.67017555236816 22.51278305053711 9.999994277954102 L 20.45881271362305 9.999994277954102 M 19.45881271362305 8.999994277954102 L 23.51278305053711 8.999994277954102 L 23.51278305053711 9.999994277954102 C 23.51278305053711 13.00442504882812 22.32049369812012 15.91985511779785 20.24163436889648 17.99872589111328 C 18.13219451904297 20.1081657409668 15.29152297973633 21.2698860168457 12.24290370941162 21.2698860168457 C 9.537216186523438 21.2698860168457 6.995193481445312 20.35471343994141 4.982912063598633 18.67419815063477 L 2.000003814697266 21.65712356567383 L 2.000003814697266 13.10795402526855 L 10.54915332794189 13.10795402526855 L 7.871713638305664 15.78540515899658 C 9.164949417114258 16.72444915771484 10.65814304351807 17.21591567993164 12.24290370941162 17.21591567993164 C 14.16022300720215 17.21591567993164 15.94350147247314 16.49651908874512 17.40086936950684 15.13546180725098 C 18.70887756347656 13.8210391998291 19.45881271362305 11.95021438598633 19.45881271362305 9.999994277954102 L 19.45881271362305 8.999994277954102 Z" stroke="none" fill="#fdfcfb"/>
        </g>
      </g>
    </g>
  </g>
</svg>
