<svg xmlns="http://www.w3.org/2000/svg" width="45.118" height="51" viewBox="0 0 45.118 51">
  <g id="_4" data-name="4" transform="translate(-0.05 -0.878)">
    <path id="Path_56295" data-name="Path 56295" d="M238.573,255.57a.449.449,0,0,1-.252.08.463.463,0,0,1-.335-.138.485.485,0,0,1-.142-.363.542.542,0,0,1,.122-.357.408.408,0,0,1,.333-.148.47.47,0,0,1,.234.056.418.418,0,0,1,.2.316l-.217,0a.19.19,0,0,0-.083-.141.212.212,0,0,0-.116-.034.19.19,0,0,0-.157.079.385.385,0,0,0-.061.238.325.325,0,0,0,.067.229.215.215,0,0,0,.162.071.172.172,0,0,0,.131-.047.227.227,0,0,0,.057-.119h.211a.4.4,0,0,1-.156.282Zm-.771-.915a.7.7,0,0,0,0,.993.695.695,0,0,0,.99,0,.7.7,0,0,0,0-.992.689.689,0,0,0-.994,0Zm1.093,1.1a.848.848,0,0,1-1.444-.609.81.81,0,0,1,.265-.619.832.832,0,0,1,.584-.23.851.851,0,0,1,.594,1.459Z" transform="translate(-195.544 -208.739)" fill="#59473d"/>
    <path id="Path_56296" data-name="Path 56296" d="M45.165,37.9c0-.085-.011-.166-.02-.243a1.166,1.166,0,0,0-.028-.15,2.19,2.19,0,0,0-.085-.333v0a1.924,1.924,0,0,0-.355-.615,1.842,1.842,0,0,0-.526-.42l-.006,0a2.043,2.043,0,0,0-.569-.2c-.052-.009-.1-.014-.149-.02a2.944,2.944,0,0,0-.239-2.05l.042-.04a6.287,6.287,0,0,0,.618-.679l.033-.045a2.152,2.152,0,0,0,.288-.59,2.288,2.288,0,0,0,.089-.439h0v-.027l.006-.041h0l0-.046h0v-.027c0-.027,0-.055,0-.085,0-.055,0-.112,0-.174A2.888,2.888,0,0,0,44,30.569a2.542,2.542,0,0,0-.415-.626,2.6,2.6,0,0,0-.662-.526h0l-.051-.031a9.445,9.445,0,0,0-1.689-1.863c-.281-.24-.544-.441-.768-.6s-.408-.291-.512-.369h0a5.083,5.083,0,0,0-.5-.328c-.2-.119-.341-.214-.429-.28a.874.874,0,0,1-.114-.1l-.007-.009a.262.262,0,0,1-.019-.069,1.753,1.753,0,0,1-.028-.273q-.014-.307.021-.9c.036-.636.108-1.514.183-2.7a10.043,10.043,0,0,0,.014-1.071,7.143,7.143,0,0,0-.2-1.469v0c-.025-.1-.054-.2-.084-.3h0c-.023-.073-.043-.127-.055-.162v0c-.023-.065-.046-.129-.072-.194v0c-.013-.032-.029-.072-.051-.123h0c-.041-.1-.087-.2-.146-.31l-.016-.03-.029-.053-.021-.035a4.847,4.847,0,0,0-.343-.493,8.269,8.269,0,0,0-.34-1.139,6.546,6.546,0,0,0-.658-1.3,4.776,4.776,0,0,0-.347-.452l.042-.044a20.034,20.034,0,0,0,2.589-3.476c2.07-3.594,1.381-5.791.439-7L39.7,4.2l-.028-.032A5.716,5.716,0,0,0,36,2.361c-3.166-.394-6.746,1.16-7.684,1.6L26.613,2.078l-.006-.007a3.251,3.251,0,0,0-.5-.444,3.51,3.51,0,0,0-.577-.337A4.454,4.454,0,0,0,24.2.923a8.718,8.718,0,0,0-3.193.3,22.455,22.455,0,0,0-5.762,2.555A39.89,39.89,0,0,0,8.982,8.487a38.273,38.273,0,0,0-6.155,7.077A22.178,22.178,0,0,0,.983,18.925,11.322,11.322,0,0,0,.1,21.948a5.516,5.516,0,0,0,.066,1.919,3.748,3.748,0,0,0,.255.745,3.293,3.293,0,0,0,.551.835l.006.006,1.985,2.079-.011.02c-.022.038-.042.076-.063.114-.031.056-.061.113-.091.17-.02.039-.039.078-.058.117-.028.058-.056.116-.083.175-.018.039-.035.079-.053.119q-.039.089-.075.181l-.047.12c-.023.061-.045.124-.067.186-.014.04-.028.081-.041.122-.021.064-.04.128-.059.192-.005.018-.011.035-.017.053l-.019.069c-.019.066-.035.133-.051.2-.01.04-.02.08-.029.121l-.019.088c-.009.041-.016.083-.024.124s-.015.075-.022.113c-.015.084-.027.169-.039.254,0,.025-.008.05-.011.075v.007l0,.023c-.007.055-.011.111-.017.167-.008.088-.015.176-.02.264,0,.039,0,.078-.006.118s0,.06,0,.091c0,.062,0,.124,0,.187,0,.037,0,.075,0,.113,0,.023,0,.045,0,.067v.013c0,.04,0,.081,0,.121s.006.088.009.131,0,.065,0,.1,0,.051.006.069c0,.041.007.083.012.124s.009.1.017.155v0h0c0,.023.005.037.008.055.006.046.014.093.021.14s.013.088.023.147l.012.06c.005.028.011.056.017.084v.006l.007.036c.007.038.017.087.032.153l.01.044.024.1.01.043.012.047.01.039.009.033.008.03.011.039.011.04c.009.032.02.063.029.094s.026.086.047.151l0-.011,0,.012c.005.016.009.026.014.039l.042.118v0h0c.012.036.031.088.057.156h0v0l0,.006v0l.011.028c.017.042.03.074.04.1l.013.032,0,.005.026.063.035.083v0l.014.03c.013.029.025.056.036.079l.027.057v0c.017.035.037.08.065.135l0,.005,0,0,.012.023.034.064.038.071,0,0c.015.028.037.069.066.121l0,0,0,0,.012.02.034.059.049.083,0,.006v0l.066.108,0,0,.009.014.043.066.058.086,0,0c.018.027.043.065.077.113l0,0,0,0,0-.005,0,.005,0,0h0v0h0l.048.068.063.085v0l.068.092.006.008.06.076.071.088.007.009.057.069.011.013h0l0,0,.006.007c.036.042.068.078.1.114l.034.039h0l0,0h0l.06.066.008.009h0l0,0h0c.039.042.077.081.115.12l.047.049,0,0,.057.057.006.005.017.018c.046.045.094.089.142.132l.011.011,0,0h0l0,0,.06.055,0,0c.061.054.122.106.183.157l0,0,.035.029.024.019h0l.035.028c.052.041.1.081.151.119l.014.011.006,0,.04.03.009.007.007.005.043.031.13.092.037.026,0,0,.045.031h0l.023.015c.044.03.091.059.138.089l.072.046.04.024.022.013.015.009c.073.044.141.083.2.118l.006,0,.039.021,0,0q.13.069.246.127l.013.006.042.02H6c.042.02.083.038.125.057l.059.027.072.033.02.009.006,0,.009,0,.12.048.02.008c.045.018.09.037.134.054l.011,0,.033.012.064.022.02.007c.064.023.128.046.193.067l.015,0,.006,0h0q.15.047.3.087h0l.017,0H7.23c.088.023.175.043.261.062h0l.032.008.033.007c.082.018.166.032.25.047l.024.006.059.009c.051.008.1.015.152.022l.022.06v0q.208.568.45,1.129c2.381,6.59,8.964,11.7,16.475,12.632s15.53-4.059,18.8-10.805c.141-.258.269-.511.386-.757a3.752,3.752,0,0,0,.743-1.046,2.72,2.72,0,0,0,.249-1.256" transform="translate(0 0)" fill="#59473d"/>
    <path id="Path_56297" data-name="Path 56297" d="M218.468,101.184v0h0v0" transform="translate(-179.908 -82.621)" fill="#59473d"/>
    <path id="Path_56298" data-name="Path 56298" d="M30.471,205.813h0" transform="translate(-25.057 -168.802)" fill="#59473d"/>
    <path id="Path_56299" data-name="Path 56299" d="M18.41,194.511h0" transform="translate(-15.122 -159.493)" fill="#59473d"/>
    <path id="Path_56300" data-name="Path 56300" d="M18.413,194.517h0" transform="translate(-15.124 -159.497)" fill="#59473d"/>
    <path id="Path_56301" data-name="Path 56301" d="M12.761,182.536v0h0v0" transform="translate(-10.469 -149.627)" fill="#59473d"/>
    <path id="Path_56302" data-name="Path 56302" d="M12.285,180.655h0v0" transform="translate(-10.077 -148.079)" fill="#59473d"/>
    <path id="Path_56303" data-name="Path 56303" d="M19.494,195.993l0,0,0,0,0,0,0,0" transform="translate(-16.013 -160.711)" fill="#59473d"/>
    <path id="Path_56304" data-name="Path 56304" d="M44.839,11.066a4.083,4.083,0,0,0-1.242-.935c-.084-.031-.169-.062-.256-.087-.042-.028-.086-.055-.13-.081a5.521,5.521,0,0,0-1.272-.312,13.318,13.318,0,0,0-6.088,1.078l-.236.1-.362.157c-.2.09-.412.185-.624.283l-.092.043-.56-.65-.16-.187-.069-.081-1.465-1.7-.127-.148L32,8.362l-.028.006-.414.094-.478.108a3.162,3.162,0,0,0-.942-.256,7.447,7.447,0,0,0-2.707.265,18.068,18.068,0,0,0-3.488,1.349,36.1,36.1,0,0,0-7.981,5.619c-.937.854-1.81,1.727-2.614,2.6-.78.849-1.494,1.7-2.134,2.541A23.686,23.686,0,0,0,8.28,25.537,10.048,10.048,0,0,0,7.5,28.206a4.223,4.223,0,0,0,.042,1.464,2.509,2.509,0,0,0,.117.366,2.02,2.02,0,0,0,.381.626l1.624,1.7.174.182.011-.012c.05-.057.1-.115.152-.17l.014-.015.057-.058c.049-.051.1-.1.148-.152l.095-.09c.031-.029.061-.059.092-.088l.043-.038c.033-.03.067-.059.1-.089s.1-.082.144-.122l.086-.07.013-.01c.052-.04.1-.08.156-.119l.1-.073c.054-.038.109-.077.165-.114l.1-.067c.057-.037.115-.073.173-.108l.1-.061c.061-.036.123-.07.184-.1l.1-.054.037-.02.006,0c.052-.027.106-.052.159-.077l.089-.043c.044-.021.09-.04.135-.06l.118-.051.044-.019q.15-.061.3-.116l.1-.033.106-.035.041-.014.063-.02L13.2,30.4l.032-.009.152-.041c.048-.012.1-.023.144-.034l.178-.039.075-.015.076-.013.176-.03.156-.022.125-.016.051,0,.057-.007.031,0a6.005,6.005,0,0,1,.685.012l.038,0a6.5,6.5,0,0,1,.81.121c.068.015.136.029.207.046l.044-.081c.151-.272.3-.536.459-.8a28.833,28.833,0,0,1,2.865-4q.507-.592,1.019-1.127a26.264,26.264,0,0,1,4.156-3.53q.435-.3.851-.556c.377-.235.74-.448,1.085-.639q.422-.234.807-.426c.427-.215.815-.393,1.157-.539.106-.045.208-.088.3-.127.149-.061.287-.115.412-.162-.108-.011-.217-.02-.329-.026s-.21-.007-.317-.008h-.081c-.108,0-.217,0-.327.011-.209.012-.423.034-.642.069q-.11.017-.221.039a9.587,9.587,0,0,1,1.6-.652,9.845,9.845,0,0,1,1-.252,10.079,10.079,0,0,1,1.254-.161c.26-.017.505-.023.732-.021s.438.012.627.026a6.816,6.816,0,0,1,1.057.15,1.687,1.687,0,0,0-.34-.347,2.977,2.977,0,0,0-.738-.4c-.093-.036-.181-.067-.259-.092-.062-.019-.119-.036-.167-.049.111-.019.221-.035.329-.05s.229-.029.34-.039a8.772,8.772,0,0,1,2.407.109,6.5,6.5,0,0,1,1.207.329,1.835,1.835,0,0,0-.441-.539,3.042,3.042,0,0,0-.389-.284c.252.058.492.123.72.193a10.726,10.726,0,0,1,1.518.592c.13.063.25.124.357.181l.087.047a6.348,6.348,0,0,1,.573.346,1.787,1.787,0,0,0-.333-.606c-.037-.046-.074-.092-.112-.135l.018.008.083.027.107.037a6.844,6.844,0,0,1,.694.3l.042.021.119.062c.1.052.2.11.306.172s.2.12.3.187q.077.052.154.107.165.118.328.254c.111.093.22.192.326.3l.063.063c.077.079.152.163.224.25a4,4,0,0,1,.376.53,3.63,3.63,0,0,1,.335.742c0,.015.009.031.013.046.062-.067.172-.187.315-.351,1.186-1.363,4.678-5.79,2.574-8.491" transform="translate(-6.098 -6.096)" fill="#141c26"/>
    <path id="Path_56305" data-name="Path 56305" d="M117.472,97.6h0a1,1,0,0,0-.121-.581l0-.007c-.009-.017-.02-.031-.03-.046l-.011-.016a.748.748,0,0,0-.061-.07.736.736,0,0,0-.141-.116.851.851,0,0,0-.093-.053,1.159,1.159,0,0,0-.333-.1,1.891,1.891,0,0,0-.324-.014c-.048,0-.1,0-.148.007h-.024l.009.032.023.087.012.048c.017.068.037.154.058.251a.576.576,0,0,1-.021.055l-.008.019a3.513,3.513,0,0,1-.583.874c-.061.071-.129.145-.2.221-1.007,1.04-3.186,2.522-7.77,3.35a16.217,16.217,0,0,1-4.215.079,5.9,5.9,0,0,1-3.8-1.582c-.055-.067-.1-.136-.153-.205-.035-.051-.069-.1-.1-.156l-.033-.058a2.977,2.977,0,0,1-.383-1.509,2.934,2.934,0,0,1,.525-1.656,2.018,2.018,0,0,1,1.023-.772,1.747,1.747,0,0,1,.641-.075c.045,0,.106.01.181.019l.619.082.086.011a20.965,20.965,0,0,0,3.887.135,17.066,17.066,0,0,0,10.584-4.38l.01-.013v-.006a1.613,1.613,0,0,0-.368-1.146,1.376,1.376,0,0,0-.21-.189,1.464,1.464,0,0,0-.146-.1c-.053-.029-.1-.059-.148-.089-.064-.04-.124-.08-.177-.12l-.008-.011c-.024-.038-.05-.075-.075-.113a10.034,10.034,0,0,0-2.735-2.613,3.52,3.52,0,0,0-.4-.259c-1.112-.677-1.275-.9-1.171-2.741.037-.662.109-1.533.183-2.713.01-.154.015-.3.017-.443,0-.034,0-.068,0-.1,0-.135,0-.268-.006-.395v-.036l0-.039q-.008-.15-.021-.291c0-.041-.008-.083-.012-.124-.011-.1-.024-.2-.039-.293-.008-.048-.017-.095-.026-.142s-.021-.1-.032-.155-.022-.1-.034-.148h0c-.015-.059-.032-.116-.049-.172-.006-.021-.011-.042-.018-.062s-.013-.036-.019-.055l-.006-.019-.019-.054v0c-.016-.043-.032-.086-.047-.127L111,78.695l-.016-.039-.019-.048,0-.009h0c-.033-.078-.068-.154-.105-.224l-.029-.052c-.042-.069-.085-.135-.129-.2l-.018-.026-.022-.029c-.032-.043-.063-.086-.1-.125l-.043-.055c-.043-.051-.085-.1-.128-.145h0v-.016l0-.012,0-.018,0-.018-.006-.028,0-.017-.008-.04,0-.014c-.015-.075-.036-.173-.065-.289l0-.008-.023-.088,0-.011c-.008-.032-.017-.064-.026-.1v0c-.022-.078-.047-.162-.075-.249-.009-.028-.019-.058-.029-.087-.02-.061-.041-.122-.064-.186-.013-.036-.028-.073-.042-.11-.023-.059-.047-.118-.072-.179-.017-.04-.035-.079-.052-.119-.027-.06-.055-.119-.085-.179-.02-.041-.04-.081-.062-.122-.032-.061-.066-.121-.1-.181l-.068-.116c-.04-.065-.084-.128-.128-.191-.022-.031-.043-.064-.066-.1s-.043-.052-.065-.079c-.051-.065-.1-.13-.156-.191l-.007-.007-.032-.03a2.767,2.767,0,0,0-.227-.22l-.014-.012c-.035-.03-.073-.059-.11-.087l0,0-.013-.01c-.032-.024-.065-.047-.1-.07l-.018-.012.007.006a1.091,1.091,0,0,0-.184-.1l-.1-.041a6.139,6.139,0,0,0-.686-.222l-.053-.013c-.231-.06-.488-.116-.76-.159-.092-.014-.184-.028-.279-.039-.044-.006-.09-.008-.135-.013l-.055-.005a6.2,6.2,0,0,0-.649-.033h-.013a4.515,4.515,0,0,0-.831.079,1.2,1.2,0,0,1,.4-.317,4.574,4.574,0,0,1,.427-.21c-.122.009-.247.026-.371.046l-.121.02-.078.015-.023,0-.065.014a9.705,9.705,0,0,0-1.565.5l-.126.052-.021.009-.1.013h0a1.93,1.93,0,0,1,.89-.834c.049-.023.095-.043.137-.059l.043-.015c.04-.014.074-.025.1-.034.066-.019.108-.028.108-.028-.03,0-.058,0-.087.006l-.073.006-.109.008-.065,0a4.886,4.886,0,0,0-1.837.6,6.341,6.341,0,0,0-.96.653l-.223.047c-.757.162-1.623.37-2.533.649-.336.1-.678.216-1.023.34-.269.1-.539.2-.811.312q-.291.118-.583.248a13.7,13.7,0,0,0-3.93,2.562c-.042.04-.085.078-.126.118-.1.1-.2.2-.294.31-.04.043-.081.083-.12.126s-.094.112-.142.167a9.633,9.633,0,0,0-.615.788q-.215.308-.406.639l-.016.026a9.379,9.379,0,0,0-.688,1.48q-.144.4-.257.818c-.02.075-.039.15-.058.225l-.01.039c-.073.306-.132.624-.179.951-.009.064-.019.128-.028.193-.021.163-.037.33-.05.5s-.022.311-.029.469l0,.036c0,.077-.007.155-.009.233s0,.181,0,.273c0,.021,0,.042,0,.064,0,.179,0,.358.011.542l0,.029c.008.183.021.369.037.557.007.078.013.156.021.236,0,.019,0,.038.005.058,0,.044.01.088.015.132q.035.312.084.634c.009.06.017.119.026.179.03.188.063.377.1.57a3.5,3.5,0,0,1-.013-.61c.005-.084.013-.173.024-.268a3.718,3.718,0,0,1,.145-.668c.019-.057.039-.115.062-.173.009-.025.021-.05.031-.076A2.917,2.917,0,0,1,90,86.894c.014.076.028.151.043.228l0,.025v.035c0,.047,0,.1,0,.152,0,.116,0,.247,0,.389s0,.3.009.46a13.283,13.283,0,0,0,.227,2.211s.028-1.278.244-1.423a24.1,24.1,0,0,0,.729,3.26,1.187,1.187,0,0,0,.134.266l-.009-.235-.05-1.315s0-.049.007-.135q.395.808.9,1.662c.094.157.19.316.289.475A6.874,6.874,0,0,0,90.85,95.3q-.1.232-.193.475c-.034.092-.066.187-.1.282-.01.03-.019.06-.028.09-.021.067-.041.134-.06.2-.01.035-.019.069-.028.1q-.027.1-.052.2c-.008.032-.016.064-.023.1-.022.1-.043.2-.062.3v.009q-.027.151-.049.3c0,.033-.009.066-.012.1q-.014.11-.025.22c0,.037-.007.075-.01.112-.006.074-.011.149-.015.224,0,.034,0,.068-.005.1,0,.108-.007.217-.007.326v.014c0,.084,0,.168.006.253s.009.171.015.257l0,.035v.022c.008.1.019.209.032.315,0,.033.01.067.014.1.01.072.02.144.032.217.006.04.014.081.021.121.012.067.025.133.039.2.009.043.019.086.028.129.015.065.03.13.047.2.011.043.022.087.035.131.018.065.036.131.057.2.013.043.026.087.04.13.022.068.045.136.069.2.015.041.028.082.043.123.028.075.057.151.088.227.013.034.026.067.04.1q.137.329.307.659c.017.032.036.065.053.1.041.077.083.154.127.231.023.04.047.081.072.121.041.069.083.139.127.209.027.043.055.086.083.13.044.067.088.134.134.2l.093.133q.07.1.146.2l.1.131c.053.068.107.136.163.2.033.042.066.083.1.125.062.074.127.148.192.222.031.035.06.07.091.1.1.108.2.217.3.325h0a2.764,2.764,0,0,1-.143-.241l0-.005c-.015-.028-.031-.06-.048-.093l-.005-.009c-.017-.035-.035-.072-.053-.111l0-.007c-.019-.041-.038-.086-.058-.132a3.534,3.534,0,0,1-.285-1.459c.06.08.12.157.181.235.07.143.16.32.264.52l.109.206c.153.282.331.6.524.91a10.482,10.482,0,0,0,.752,1.079h0a7.116,7.116,0,0,1-.41-1.06.694.694,0,0,1-.028-.283l.074.076.074.076.179.237.035.046.108.141,0,0,.137.178a17.353,17.353,0,0,0,1.412,1.649,1.494,1.494,0,0,0,.342.265l-.589-1.056c1.334,1.086,6.838,2.479,12.261.924a15.736,15.736,0,0,0,1.952-.7c.389-.168.775-.353,1.156-.558l.055-.031q.4-.219.794-.468l.006,0q.3-.186.586-.389c.324-.228.645-.469.957-.73h0l.055-.047q.465-.406.869-.833a13.1,13.1,0,0,0,.965-1.14l.021-.028q.106-.142.207-.282l.019-.027.063-.094c.093-.134.186-.269.272-.4l.063-.1c.045-.071.088-.142.131-.212s.066-.11.1-.164l.1-.177c.061-.107.12-.213.177-.318l.065-.124c.043-.082.086-.163.126-.244l.056-.112.017-.035c.05-.1.1-.2.145-.3l.009-.021a3.353,3.353,0,0,0,.419-.466c.016-.021.032-.042.047-.063a1.646,1.646,0,0,0,.325-.934" transform="translate(-73.513 -59.556)" fill="#856249"/>
    <path id="Path_56306" data-name="Path 56306" d="M26.476,148.008c0-.025-.009-.049-.013-.073l0,0q-.1-.524-.146-1.074c0-.026-.006-.051-.009-.077a.481.481,0,0,0-.2.208c-.026.041-.051.086-.076.133a6.916,6.916,0,0,0-.348.822c.013-.159.03-.325.05-.491,0-.019.005-.038.007-.058.02-.169.044-.34.069-.51,0-.021.006-.041.009-.061.029-.191.06-.381.093-.565,0-.024.008-.047.012-.071l0-.012.011-.064c.005-.032.011-.063.017-.094.026-.145.054-.286.08-.419s.047-.234.069-.342l.007-.035c0-.017.007-.032.01-.048s.007-.032.01-.048v-.006l.017-.08,0-.007c.005-.025.01-.047.015-.07s.016-.075.024-.109l0-.01c.006-.028.012-.056.018-.082s.016-.071.023-.1h0l.012-.051v0c0-.015.007-.031.01-.045l.021-.088.005-.021,0-.008.006-.025,0-.017v0l0,0-.037.034c-.033.029-.066.057-.1.09l-.034.037a1.615,1.615,0,0,0-.1.127l-.017.022c-.04.056-.078.116-.114.176h0l0,.008h0l-.014.027-.024.045c-.021.038-.042.074-.061.112h0v0l-.007.014-.007.014c-.029.06-.055.12-.08.179a4.839,4.839,0,0,0-.165.456c-.014.047-.027.091-.038.131-.024.085-.04.152-.048.184v0l-.005.022h0l0-.026c0-.051.009-.1.013-.151.008-.106.014-.212.026-.317.009-.089.023-.175.035-.263l.012-.082c.005-.04.011-.081.018-.121s.014-.075.021-.111v0h0l.008-.041,0-.011c.008-.045.017-.091.026-.136,0-.018.006-.035.01-.053l.006-.031v-.006l.009-.044c0-.018.009-.036.012-.054.015-.066.031-.131.046-.2l0-.011c.011-.049.022-.1.035-.146v-.005l0-.014c.026-.1.054-.2.082-.292l.015-.054c.005-.018.01-.037.016-.055.047-.158.1-.313.15-.465l.007-.019c.046-.129.092-.256.14-.382l.005-.014c.022-.055.044-.108.066-.163l0-.008c.033-.081.066-.163.1-.242h0l0-.01c.009-.02.03-.068.063-.138h0l0-.009h0l.037-.083.06-.133.018-.039v0l.344-.617.042-.078.007-.012.018-.032.112-.2.157-.284c.1-.182.187-.336.24-.428l.054-.1,0,0h0l0,0c-.013-.009-.118-.081-.289-.185a8.781,8.781,0,0,0-.827-.439q-.166-.078-.35-.153c-.147-.06-.3-.119-.46-.172-.041-.014-.085-.025-.126-.038q-.2-.063-.412-.114l-.008,0c-.1-.023-.193-.047-.292-.066-.078-.015-.156-.029-.235-.04-.038-.005-.077-.008-.115-.012l-.113-.011c-.106-.009-.213-.014-.32-.017-.052,0-.1,0-.156,0a5.768,5.768,0,0,0-.686.058l-.041.006a5.682,5.682,0,0,0-1.166.3q-.189.071-.373.155l-.1.05-.126.061a5.729,5.729,0,0,0-1.029.681l-.011.009a5.712,5.712,0,0,0-.75.75q-.1.117-.188.238-.107.144-.207.294a5.77,5.77,0,0,0-.338.591c-.036.072-.071.144-.1.217l-.017.042a5.716,5.716,0,0,0-.427,1.523q-.021.157-.035.317l0,.04q-.009.127-.013.254c0,.1,0,.209,0,.315,0,.017,0,.033,0,.05,0,.082.006.163.012.244l0,.043.005.056c.005.064.011.128.019.19l0,.014v0h0c0,.032.01.063.014.1.008.057.016.114.026.171.007.041.017.081.024.122s.02.106.032.158.021.085.032.127l.007.03.011.044.009.034.011.041c.012.044.026.087.039.131s.028.093.043.138.031.089.047.133l.013.035c.011.032.022.064.035.1s.036.089.055.134.034.082.052.122c.01.023.021.046.032.068s.021.045.031.067c.018.039.036.077.056.115s.048.091.072.136.038.071.057.107.054.092.082.138l.059.1c.029.047.06.092.091.138l.06.09c.033.047.066.092.1.139l.06.081c.036.047.073.093.111.139.019.024.039.049.06.073.039.047.08.092.121.138l.059.064c.043.047.087.092.132.137l.057.057c.046.046.095.091.143.135l.055.05q.075.067.154.132l.051.043c.054.044.11.087.165.129l.048.036c.058.042.117.084.177.125l.044.03c.062.041.124.082.187.12l.04.024c.065.04.132.077.2.115l.035.019c.07.038.14.073.211.108l.03.014c.073.035.147.069.221.1l.026.011c.076.032.154.062.231.092l.022.008c.08.029.16.057.242.083l.017.005.12.035.131.038.012,0q.13.034.261.062l.007,0h0c.089.019.178.036.268.05h0a5.776,5.776,0,0,0,.849.073c.069,0,.137,0,.206,0,.092,0,.187-.008.282-.016q.195-.016.394-.046.175-.026.35-.062c.181-.037.36-.082.533-.132a4.175,4.175,0,0,0,1.248-.555s-.18-.8-.332-1.605c-.017-.089-.033-.178-.048-.266" transform="translate(-14.913 -113.888)" fill="#856249"/>
    <path id="Path_56307" data-name="Path 56307" d="M199.051,80.914h0l0,0h0" transform="translate(-163.913 -65.924)" fill="#856249"/>
    <path id="Path_56308" data-name="Path 56308" d="M30.581,10.307,30.516,9.5l.4-.894.16-.036a3.162,3.162,0,0,0-.942-.256,7.447,7.447,0,0,0-2.707.265,18.068,18.068,0,0,0-3.488,1.349,36.1,36.1,0,0,0-7.981,5.619c-.937.854-1.81,1.727-2.614,2.6-.78.849-1.494,1.7-2.134,2.541A23.686,23.686,0,0,0,8.28,25.537,10.048,10.048,0,0,0,7.5,28.206a4.223,4.223,0,0,0,.042,1.464,2.509,2.509,0,0,0,.117.366,2.02,2.02,0,0,0,.381.626l1.624,1.7.174.182.011-.012c.05-.057.1-.115.152-.17l.014-.015.057-.058c.049-.051.1-.1.148-.152l.095-.09c.031-.029.061-.059.092-.088l.043-.038c.033-.03.067-.059.1-.089s.1-.082.144-.122l.086-.07.013-.01c.052-.04.1-.08.156-.119l.1-.073c.054-.038.109-.077.165-.114l.1-.067c.057-.037.115-.073.173-.108l.1-.061c.061-.036.123-.07.184-.1l.1-.054.037-.02,0-.007a18.836,18.836,0,0,1,1.727-3.463,33,33,0,0,1,3.521-4.627c.885-.983,1.857-1.963,2.906-2.92a41.369,41.369,0,0,1,4.106-3.3c.919-.645,1.829-1.218,2.717-1.722.084-.048.169-.1.252-.143.237-.131.471-.255.7-.375q.761-.393,1.492-.71l-.238-.286-.039-.047-1.973-2.372L27.1,9.5l-.019-.021,1.185-.353,2.315,1.185" transform="translate(-6.098 -6.096)" fill="#3478ad"/>
    <path id="Path_56309" data-name="Path 56309" d="M138.029,116.83h0a1,1,0,0,0-.121-.581l0-.007c-.009-.017-.02-.031-.03-.046l-.011-.016a.753.753,0,0,0-.061-.07.736.736,0,0,0-.141-.116.853.853,0,0,0-.093-.053,1.16,1.16,0,0,0-.333-.1,1.891,1.891,0,0,0-.324-.014c-.048,0-.1,0-.148.007h-.024l.009.032.023.087.012.048c.017.068.037.154.058.251a.58.58,0,0,1-.021.055l-.008.019a3.513,3.513,0,0,1-.583.874c-.061.071-.129.145-.2.221-1.007,1.04-3.186,2.522-7.77,3.35a16.216,16.216,0,0,1-4.215.079,5.9,5.9,0,0,1-3.8-1.582c-.055-.067-.1-.136-.153-.205-.035-.051-.069-.1-.1-.156l-.033-.058a2.978,2.978,0,0,1-.383-1.509,2.934,2.934,0,0,1,.525-1.656,2.018,2.018,0,0,1,1.023-.772,1.746,1.746,0,0,1,.641-.075c.045,0,.106.01.181.019l.619.082.086.011a20.966,20.966,0,0,0,3.887.135,17.066,17.066,0,0,0,10.584-4.38l.01-.013v-.006a1.613,1.613,0,0,0-.368-1.146,1.374,1.374,0,0,0-.21-.189,1.467,1.467,0,0,0-.146-.1c-.053-.029-.1-.059-.148-.089-.064-.04-.124-.08-.177-.12l-.008-.011c-.024-.038-.05-.075-.075-.113a10.034,10.034,0,0,0-2.735-2.613,3.52,3.52,0,0,0-.4-.259c-1.112-.677-1.275-.9-1.171-2.741.037-.662.109-1.533.183-2.713.01-.154.014-.3.017-.443,0-.034,0-.068,0-.1,0-.135,0-.268-.006-.395v-.036l0-.039q-.008-.15-.021-.291c0-.041-.008-.083-.012-.124-.011-.1-.024-.2-.039-.293-.008-.048-.017-.095-.026-.142s-.021-.1-.032-.155-.022-.1-.034-.148h0c-.015-.059-.032-.116-.049-.172-.006-.021-.011-.042-.018-.062s-.013-.036-.019-.055l-.006-.019-.019-.054v0c-.016-.043-.032-.086-.047-.127l-.005-.014-.016-.039-.019-.048,0-.009h0c-.033-.078-.068-.154-.105-.224l-.029-.052c-.042-.069-.085-.135-.129-.2l-.018-.026-.022-.029c-.032-.043-.063-.086-.1-.125l-.043-.055c-.043-.051-.085-.1-.128-.145h0c-.053-.055-.105-.108-.159-.156s-.121-.072-.182-.1c-.02-.01-.04-.018-.06-.027-.04-.019-.08-.037-.12-.052l-.069-.024c-.036-.011-.072-.023-.108-.033l-.072-.016c-.035-.007-.07-.014-.1-.019L130,96.539c-.035,0-.069-.005-.1-.006h-.07c-.036,0-.071,0-.106.005l-.065.006-.048.007-.066.01-.057.01c-.044.009-.088.021-.131.033l-.038.01a2.669,2.669,0,0,0-.342.13l-.038.018c-.044.02-.088.042-.132.064l-.051.027c-.04.021-.08.043-.12.065l-.054.032-.118.07-.054.033-.123.079-.046.03-.14.093-.028.019-.159.109,0,0-.008.005h0l-.3.207-.255.175-.041.028c-.086.058-.174.115-.261.171l-.044.028c-.088.055-.177.108-.266.159l-.047.026c-.09.051-.181.1-.273.143l-.046.022c-.093.044-.188.086-.284.122l-.04.015c-.1.036-.2.069-.3.1l-.027.006a2.853,2.853,0,0,1-.327.065,4.318,4.318,0,0,1-.56.034,6.057,6.057,0,0,1-.919-.069c-.1-.015-.206-.034-.309-.053l-.109-.02c-.268-.052-.538-.114-.809-.18l-.343-.083c-.184-.045-.37-.088-.556-.131l-.11-.026h0l-.079-.017-.123-.027-.118-.024-.021,0-.014,0-.109-.022-.254-.045-.075-.011-.189-.028-.1-.011H120.6l-.165-.019-.11-.01-.05,0-.113-.008-.109-.006-.172,0h-.1c-.071,0-.144,0-.216,0l-.058,0c-.092,0-.184.011-.277.021l-.072.008q-.09.011-.18.024l-.027,0-.1.017c-.062.011-.123.023-.184.036l-.106.025c-.061.014-.122.031-.184.048l-.1.03c-.066.02-.132.043-.2.066-.03.01-.06.02-.09.032-.1.036-.193.075-.291.118a6.441,6.441,0,0,0-1.942,1.74,6.807,6.807,0,0,0-.872,1.563c-.033.083-.065.167-.1.251-.05.142-.1.286-.138.431,0,.016-.008.031-.012.047q-.067.245-.115.5c-.034.174-.06.349-.079.525-.01.1-.02.19-.026.285a6.166,6.166,0,0,0,0,.769c0,.023,0,.047,0,.07,0,.066.007.131.014.2.019.182.045.365.082.546.013.067.031.13.047.194s.029.125.045.185h0a5.343,5.343,0,0,0,.53,1.257,7.143,7.143,0,0,0,3.192,2.759,12.117,12.117,0,0,0,1.207.456l-.05.033c-.074.019-.16.041-.256.069-.145.041-.313.092-.5.154-.208.07-.436.154-.678.254a8.266,8.266,0,0,0-2.022,1.17q-.122.1-.239.2c-.133.12-.259.247-.381.38-.014.015-.029.03-.042.045l-.055.063c-.046.054-.091.109-.136.165l-.053.067c-.058.077-.115.155-.169.236s-.1.161-.151.244a4.189,4.189,0,0,0-.534,2.428l0-.01v-.007l.007-.036,0-.008c0-.014.007-.032.011-.051l0-.012.019-.074,0-.018.026-.094h0c.009-.033.021-.069.033-.107l.008-.023c.012-.038.026-.077.041-.118l.008-.02q.021-.058.046-.119l.008-.019c.018-.044.038-.09.059-.136l.013-.029c.022-.047.045-.1.071-.144h0l0-.006c.038-.072.081-.146.126-.221.017-.028.034-.056.053-.084l.014-.024h0c.039-.058.08-.116.124-.174s.074-.094.113-.14l.039-.043c.031-.035.064-.07.1-.105l.041-.042c.046-.045.094-.09.144-.132l0,0h0a6.6,6.6,0,0,0-.492,3.532s0,0,0-.013v-.01c0-.009,0-.019,0-.032s0-.006,0-.008,0-.035,0-.057a.065.065,0,0,1,0-.009c0-.023,0-.049,0-.078,0,0,0-.006,0-.008,0-.03,0-.062.006-.1a.057.057,0,0,1,0-.009c0-.035.006-.072.01-.112v-.01c0-.039.009-.08.015-.123l0-.011c.007-.045.014-.092.023-.141l0-.011,0-.024h0c.011-.055.023-.11.038-.167l0-.011c.015-.055.031-.111.049-.167l.017-.052.012-.036h0q.025-.069.054-.138l0-.007h0a2.089,2.089,0,0,1,.093-.188c.009-.016.018-.033.028-.049a1.809,1.809,0,0,1,.117-.177l0,0h0a9.541,9.541,0,0,0-.037,1.062c0,.091.007.184.012.278,0,.063.008.126.013.188a7.617,7.617,0,0,1,.317-1.747,7.612,7.612,0,0,0-.317,1.747h0a7.768,7.768,0,0,0,.021,1.232,8.814,8.814,0,0,0,.535,2.251,2.929,2.929,0,0,1,.12-1.818q.053.124.113.25c.032.27.087.653.166,1.074a7.634,7.634,0,0,0,1.844,4.293,2.518,2.518,0,0,1-.457-1.617c.057.12.113.228.166.322a10.519,10.519,0,0,0,1.263,1.9s-.431-.835-.331-1.015a11.534,11.534,0,0,0,1.852,1.918l-.588-.975-.013-.029c2.042,1.481,4.844,2.031,8.31,1.066a16.954,16.954,0,0,0,1.845-.636c.389-.168.775-.353,1.156-.558l.055-.031q.4-.219.794-.468l.006,0q.3-.186.586-.389c.324-.228.645-.469.957-.73h0l.055-.047q.465-.406.869-.833a13.091,13.091,0,0,0,.965-1.141l.021-.028q.106-.142.207-.282l.019-.027.063-.094c.093-.134.186-.269.272-.4l.063-.1c.045-.071.088-.142.131-.212s.066-.11.1-.164l.1-.177c.061-.107.12-.213.177-.318l.065-.124c.043-.082.086-.163.126-.244l.056-.112.016-.035c.05-.1.1-.2.145-.3l.009-.021a3.353,3.353,0,0,0,.419-.466c.016-.021.032-.042.047-.063a1.646,1.646,0,0,0,.325-.934" transform="translate(-94.07 -78.789)" fill="#fce9c9"/>
    <path id="Path_56310" data-name="Path 56310" d="M43,159.042a.481.481,0,0,0-.2.208c-.026.041-.051.086-.076.133a6.914,6.914,0,0,0-.348.822c.013-.159.03-.325.05-.491,0-.019.005-.038.007-.058.02-.169.044-.34.069-.51,0-.021.006-.041.009-.061.029-.191.06-.381.093-.565,0-.024.008-.047.012-.071l0-.012.011-.064c.005-.032.011-.063.017-.094.026-.145.054-.286.08-.419s.047-.234.069-.342l.007-.035c0-.017.007-.032.01-.048s.007-.032.01-.048v-.006l.017-.08,0-.007c.005-.025.01-.046.015-.07s.016-.075.024-.109l0-.01c.006-.028.012-.056.018-.082s.016-.071.023-.1h0l.012-.051v0c0-.015.007-.031.01-.045l.021-.088.005-.021,0-.008.006-.025,0-.017v0l0,0-.037.034c-.033.029-.066.057-.1.09l-.034.037a1.616,1.616,0,0,0-.1.127l-.017.022c-.04.056-.078.116-.114.176h0l0,.008h0l-.014.027-.024.045c-.021.038-.042.074-.061.112h0v0l-.007.014-.007.014c-.029.06-.055.12-.08.179a4.838,4.838,0,0,0-.165.456c-.014.047-.027.091-.038.131-.024.085-.04.152-.048.184v0l-.005.022h0l0-.026c0-.051.009-.1.013-.151.008-.106.014-.212.026-.317.009-.089.023-.175.035-.263l.012-.082c.005-.04.011-.081.018-.121s.014-.075.021-.112v0h0l.008-.041,0-.011c.008-.045.017-.091.026-.136,0-.018.006-.035.01-.053l.006-.031v-.006l.009-.044c0-.019.009-.036.012-.054.015-.066.031-.131.046-.2l0-.011c.011-.049.022-.1.035-.146v-.005l0-.014c.026-.1.054-.2.082-.292l.015-.054c.005-.018.01-.037.016-.055.047-.158.1-.313.15-.465l.007-.019c.046-.129.092-.256.14-.382l.005-.014c.022-.055.044-.108.066-.163l0-.008c.033-.081.066-.163.1-.242h0l0-.01c.009-.02.03-.068.063-.138h0l0-.009h0l.037-.083.06-.133.018-.039c-.028-.015-.058-.029-.087-.043l-.017-.008-.031-.015a3.258,3.258,0,0,0-.592-.216l-.033-.008a3.146,3.146,0,0,0-.4-.074c-.08-.009-.159-.016-.24-.02s-.134,0-.2,0c-.1,0-.2.011-.3.022l-.093.014c-.049.007-.1.017-.146.026l-.058.011-.1.023c-.066.016-.131.035-.2.055-.03.009-.06.017-.089.027-.087.031-.173.064-.257.1-.033.015-.064.032-.1.047l-.114.058-.039.02c-.041.023-.082.048-.122.072s-.075.047-.111.072-.088.059-.13.09l-.077.06c-.068.054-.133.112-.2.172-.033.031-.065.062-.1.094-.056.056-.111.112-.162.172l-.026.03c-.027.032-.052.066-.077.1l0,0,0,0c-.017.023-.036.044-.052.067l-.007.009-.007.009h0a3.25,3.25,0,0,0-.272.458c-.011.023-.022.046-.033.07q-.054.117-.1.24c-.012.032-.025.064-.036.1h0c-.028.083-.052.167-.073.254l-.008.032-.008.041v0c-.014.063-.028.126-.038.189-.005.031-.008.063-.012.1v.009c0,.034-.007.068-.011.1s-.007.052-.009.078c-.007.1-.011.2-.008.3,0,.079.009.158.017.236v0l0,.036c0,.043.012.086.018.129a3.159,3.159,0,0,0,.1.456,3.114,3.114,0,0,0,.118.329,3.237,3.237,0,0,0,.3.555,3.274,3.274,0,0,0,.938.921,3.353,3.353,0,0,0,1.4.5c.057.006.114.01.171.014.086.006.171.009.259.007s.159-.012.238-.019c.045,0,.092,0,.136-.011a3.231,3.231,0,0,0,.335-.066l.025-.005c.046-.012.088-.029.132-.042a3.157,3.157,0,0,0,.4-.153l.028-.012c.036-.015.074-.03.109-.048l0,0q-.1-.524-.146-1.074c0-.026-.006-.051-.009-.077" transform="translate(-31.601 -126.147)" fill="#fce9c9"/>
    <path id="Path_56311" data-name="Path 56311" d="M141.5,21.245l.06.031v-.008l-.059-.023" transform="translate(-116.508 -16.776)" fill="#4d94c3"/>
    <path id="Path_56312" data-name="Path 56312" d="M168.585,190.554l-.012-.047-.023-.087a3.2,3.2,0,0,0-.335-.749,1.909,1.909,0,0,0-.26-.344c.024-.081.042-.16.059-.238.022-.1.038-.2.05-.3a2.917,2.917,0,0,0-.266-1.619c-.025-.051-.049-.1-.07-.134-.113.08-.227.159-.341.236a17.531,17.531,0,0,1-7.238,2.81,20.953,20.953,0,0,1-5.718.063l.035.01a1.926,1.926,0,0,0-1.523,1.314l.02.012-.1.771a2.39,2.39,0,0,0,1.056,2.041,8.7,8.7,0,0,0,2,.474,15.91,15.91,0,0,0,4.374-.125h.016a18.244,18.244,0,0,0,7.024-2.787,10.062,10.062,0,0,0,1.268-1.011l.014-.013.025-.024c-.021-.1-.041-.184-.058-.251" transform="translate(-125.871 -153.338)" fill="#fdfcfb"/>
    <path id="Path_56313" data-name="Path 56313" d="M134.482,109.068c-1.112-.677-1.275-.9-1.171-2.741.037-.662.109-1.533.183-2.713.01-.154.014-.3.017-.443,0-.034,0-.068,0-.1,0-.135,0-.268-.006-.395v-.036l0-.039q-.008-.15-.021-.291c0-.041-.008-.083-.012-.124-.011-.1-.024-.2-.039-.293-.008-.048-.017-.095-.026-.142s-.021-.1-.032-.155-.022-.1-.034-.148h0a2.84,2.84,0,0,0-.567-.625l-.043-.032-.009-.007-.033-.024-.011-.008c-.032-.025-.065-.049-.1-.07s-.071-.047-.107-.068a2.892,2.892,0,0,0-1.087-.384,3.652,3.652,0,0,0-.671-.034c-.107,0-.215.013-.324.026a4.972,4.972,0,0,0-.868.183l-.3.207-.255.175-.041.028c-.086.058-.174.115-.261.171l-.044.028c-.088.055-.177.108-.266.159l-.047.026c-.09.051-.181.1-.273.143l-.046.022c-.093.044-.188.086-.284.122l-.04.015c-.1.036-.2.069-.3.1l-.027.006a2.851,2.851,0,0,1-.327.065,4.317,4.317,0,0,1-.56.034,6.057,6.057,0,0,1-.919-.069c-.1-.016-.206-.034-.309-.053l-.109-.02c-.268-.052-.538-.114-.809-.18l-.343-.083c-.184-.045-.37-.088-.556-.131l-.11-.026c-.156.008-.313.024-.47.043l-.034,0a6.954,6.954,0,0,0-1.368.325l-.075.025c-.071.025-.141.053-.212.081-.094.037-.189.076-.282.118a7.812,7.812,0,0,0-1.887,1.185,8.243,8.243,0,0,0-.675.642,8.035,8.035,0,0,0-.858,1.089l-.041.064q-.2.31-.366.632c-.04.076-.08.153-.117.23l-.007.015a7.533,7.533,0,0,0-.311.768c-.005.015-.009.031-.014.046-.013.038-.022.075-.034.113-.038.12-.073.241-.1.362s-.063.251-.088.377c-.005.027-.011.054-.016.081-.014.077-.028.154-.04.231a6.583,6.583,0,0,0-.072.845c0,.07,0,.142,0,.211a5.344,5.344,0,0,0,.53,1.257,7.143,7.143,0,0,0,3.192,2.759,12.116,12.116,0,0,0,1.207.456l.011.018h0l.027-.021c.053-.041.107-.081.162-.122l.059-.044c.056-.041.114-.083.173-.124l.06-.041c.059-.041.12-.083.182-.124l.062-.041c.063-.041.126-.083.191-.124l.064-.04.2-.122.07-.042.206-.119.076-.042c.069-.039.139-.077.211-.116l.086-.045.214-.111.093-.047.218-.107.105-.05.219-.1.118-.053.219-.1.132-.056.219-.09.149-.059.216-.083.165-.062.213-.077.185-.064c.069-.024.139-.048.209-.071l.2-.066.2-.065.228-.069.194-.057.252-.071c.042-.011.083-.024.126-.035.329-.828,1.306-2.883,2.979-3.108a3.693,3.693,0,0,1,.5-.037c.038,0,.08,0,.116,0-.019-.119-.035-.243-.042-.372-.052-.885.22-1.621.608-1.645.3-.024.539.414.58.568a3.067,3.067,0,0,1,.217.994,3.173,3.173,0,0,1-.078.938c.034.035.062.073.092.111a2.465,2.465,0,0,1,.432,1.6c.149-.015.3-.028.455-.041l.117-.011.024,0,.066-.005q.284-.024.575-.044h.009c.44-.031.892-.057,1.357-.076a3.52,3.52,0,0,0-.4-.259" transform="translate(-95.685 -81.802)" fill="#efcfa5"/>
    <path id="Path_56314" data-name="Path 56314" d="M204.782,220.212a12.416,12.416,0,0,1-2.259,1.6c-.38.209-.757.391-1.128.552a14.308,14.308,0,0,1-2.316.78,12.314,12.314,0,0,1-2.626.376,4.676,4.676,0,0,0,2.639.4,6.531,6.531,0,0,0,.849-.137,5.6,5.6,0,0,1-.109.859,4.559,4.559,0,0,1-.245.8l-.008.021h0a3.959,3.959,0,0,1-.445.8c-.018.025-.036.052-.055.076l.055-.031q.4-.219.794-.468l.006,0q.3-.186.586-.389c.324-.228.645-.469.957-.73h0l.055-.047q.465-.406.869-.833a13.092,13.092,0,0,0,.965-1.141l.021-.028q.106-.142.207-.282l.019-.027.063-.094c.093-.134.186-.269.272-.4l.063-.1c.045-.071.088-.142.131-.212s.066-.11.1-.164l.1-.177c.061-.107.12-.213.177-.318l.065-.124c.043-.082.086-.163.126-.244l.056-.112.017-.035c.05-.1.1-.2.145-.3-.051.046-.1.09-.151.134" transform="translate(-161.775 -180.553)" fill="#efcfa5"/>
    <path id="Path_56315" data-name="Path 56315" d="M118.727,173.816c-.208.07-.436.154-.678.254a8.267,8.267,0,0,0-2.022,1.17q-.122.1-.239.2c-.133.12-.259.247-.381.38-.014.015-.029.03-.042.045l-.055.063c-.046.054-.091.109-.136.165l-.053.067c-.058.077-.115.155-.169.236s-.1.161-.151.244a4.189,4.189,0,0,0-.534,2.428l0-.01v-.007l.007-.036,0-.008c0-.014.007-.032.011-.051l0-.012.019-.074,0-.018.026-.094h0c.009-.033.021-.069.033-.107l.008-.023c.012-.038.026-.077.041-.118l.008-.02q.021-.058.046-.119l.008-.019c.018-.044.038-.09.059-.136l.013-.029c.022-.047.045-.1.071-.144h0l0-.006c.038-.072.081-.146.126-.221.017-.028.034-.056.053-.084l.014-.024h0c.039-.058.08-.116.124-.174s.074-.094.113-.14l.039-.043c.031-.035.064-.07.1-.105l.041-.042c.046-.045.094-.09.144-.132l0,0h0a6.6,6.6,0,0,0-.492,3.532s0,0,0-.013v-.01c0-.009,0-.019,0-.032s0-.006,0-.008,0-.035,0-.057a.065.065,0,0,1,0-.009c0-.023,0-.049,0-.078,0,0,0-.006,0-.008,0-.03,0-.062.006-.1a.057.057,0,0,1,0-.009c0-.035.006-.072.01-.112v-.01c0-.039.009-.08.015-.123l0-.011c.007-.045.014-.092.023-.141l0-.011,0-.024h0c.011-.055.023-.11.038-.167l0-.011c.015-.055.031-.111.049-.167l.017-.052.012-.036h0q.025-.069.054-.138l0-.007h0a2.09,2.09,0,0,1,.093-.188c.009-.016.018-.033.028-.049a1.811,1.811,0,0,1,.117-.177l0,0h0a9.541,9.541,0,0,0-.037,1.062c0,.091.007.184.012.278,0,.063.008.126.013.188a7.617,7.617,0,0,1,.317-1.747c.046-.15.1-.3.15-.44l.023-.062c.052-.136.106-.269.163-.4l.033-.073q.087-.193.181-.379l.03-.057c.134-.257.277-.5.426-.734l.033-.051c.057-.087.115-.17.173-.253.015-.022.03-.045.045-.067l.042-.058q.111-.153.223-.3l.036-.045c.078-.1.156-.2.234-.288l0-.005q.148-.175.294-.334.107-.117.213-.224l.081-.081c.168-.169.33-.322.481-.457a9.211,9.211,0,0,1,.929-.739c-.074.019-.16.041-.256.069-.145.041-.313.092-.5.154" transform="translate(-94.07 -142.264)" fill="#efcfa5"/>
    <path id="Path_56316" data-name="Path 56316" d="M190.379,145.451a1.047,1.047,0,0,0-.023-.126c-.071-.288-.355-.968-1.476-.86a1.919,1.919,0,0,0-1.666,1.381c-.021.067-.03.109-.03.109l.032.027a.611.611,0,0,1,.689.052.9.9,0,0,1,.275.268h0a.427.427,0,0,1,.057.439.275.275,0,0,1-.055.068s.045.017.121.039a1.609,1.609,0,0,0,1.717-.346c.024-.03.048-.059.069-.092a.392.392,0,0,1-.15-.357.847.847,0,0,1,.036-.253c.08-.265.261-.422.4-.35" transform="translate(-154.14 -118.262)" fill="#efcfa5"/>
    <path id="Path_56317" data-name="Path 56317" d="M163.31,173.026c-.758.156-1.422.273-1.936.356l.086.011a20.966,20.966,0,0,0,3.887.135,17.066,17.066,0,0,0,10.584-4.38l.01-.013v-.006a1.613,1.613,0,0,0-.368-1.146,1.376,1.376,0,0,0-.21-.189l-.04-.025c-.095-.053-.177-.106-.254-.159s-.124-.08-.177-.12l-.008-.011a6.759,6.759,0,0,1-.766.91c-.1.1-.21.2-.319.3a13.933,13.933,0,0,1-3.664,2.255,34.75,34.75,0,0,1-6.825,2.083" transform="translate(-132.881 -137.228)" fill="#efcfa5"/>
    <path id="Path_56318" data-name="Path 56318" d="M43.745,156.7c-.033.029-.066.057-.1.09l-.034.037a1.613,1.613,0,0,0-.1.127l-.017.022c-.04.056-.078.116-.114.176h0l0,.008h0l-.014.027-.024.045c-.021.038-.042.074-.061.112h0v0l-.007.014-.007.014c-.029.06-.055.12-.08.179a4.839,4.839,0,0,0-.165.456c-.014.047-.027.091-.038.131-.024.085-.04.152-.048.184v0l-.005.022h0l0-.026c0-.051.009-.1.013-.151.008-.106.014-.212.026-.317.009-.089.023-.175.035-.263l.012-.082c.005-.04.011-.081.018-.121s.014-.075.021-.112v0h0l.008-.041,0-.011c.008-.045.017-.091.026-.136,0-.018.006-.035.01-.053L43.1,157v-.006l.009-.044c0-.019.009-.036.012-.054.015-.066.031-.131.046-.2l0-.011c.011-.049.022-.1.035-.146v-.005l0-.014c.026-.1.054-.2.082-.292l.015-.054c.005-.018.01-.037.016-.055.047-.158.1-.313.15-.465l.007-.019c.046-.129.092-.256.14-.382l.005-.014c.022-.055.044-.108.066-.163l0-.008c.033-.081.066-.163.1-.242h0l0-.01c.009-.02.03-.068.063-.138h0l0-.009h0l.037-.083.06-.133.018-.039c-.028-.015-.058-.029-.087-.043l-.017-.008-.031-.015a3.258,3.258,0,0,0-.592-.216l-.033-.008a3.146,3.146,0,0,0-.4-.074c-.08-.009-.159-.016-.24-.02s-.134,0-.2,0c-.1,0-.2.011-.3.022l-.093.014c-.049.007-.1.017-.146.026l-.058.011-.1.023c-.066.016-.131.035-.2.055-.03.009-.06.017-.089.027-.087.031-.173.064-.257.1-.033.015-.064.032-.1.048l-.114.058-.039.02c-.041.023-.082.048-.122.072s-.075.047-.111.072-.088.059-.13.09l-.077.06c-.068.054-.133.112-.2.172-.033.031-.065.062-.1.094-.056.056-.11.112-.162.172l-.026.03c-.027.032-.052.066-.077.1l0,0,0,0c-.017.023-.036.044-.052.067l-.007.009-.007.009h0a3.271,3.271,0,0,0-.272.459c-.011.023-.022.046-.032.069-.037.078-.07.158-.1.24-.012.032-.025.064-.036.1h0c.006.021.013.041.02.062.022.073.045.143.069.212l.008.024.009.024c.025.07.051.138.078.2a5.631,5.631,0,0,0,.252.541l.038.07.009.017.012.02c.064.114.127.214.185.3.093.14.174.246.231.318l.033.041.024.028.036.04c-.008-.036-.013-.071-.02-.107a4.389,4.389,0,0,1-.086-.759v-.043c0-.159,0-.317.012-.47h0c.016.059.034.116.052.172.027.085.054.168.083.247l.01.029,0,.01a5.466,5.466,0,0,0,.4.854,4.5,4.5,0,0,0,.394.577l.045.054.038.043a4.3,4.3,0,0,1-.105-.808c0-.089-.007-.178-.005-.266,0-.112.007-.222.017-.33h0c.049.186.1.357.164.519l0,.012a5.341,5.341,0,0,0,.663,1.263l.021.028.085.112c.017.022.034.043.048.059l.042.049.022.025-.007-.038c-.008-.038-.016-.076-.024-.114-.026-.136-.044-.272-.057-.406-.009-.09-.017-.179-.02-.267s0-.167,0-.25c0-.015,0-.03,0-.045,0-.043,0-.086,0-.128l0-.026,0-.019c.007-.109.016-.217.03-.322h0c.021.07.043.139.065.2.017.05.035.1.052.146l0,.01.006.017.011.029c.022.058.044.113.067.167.043.1.087.2.131.289.054.111.108.214.161.308.031.053.06.1.089.151s.073.116.107.167.061.088.088.126l.021.029c.026.035.051.068.073.1l.046.057c.036.044.062.073.073.085l.007.007.023.016c0-.019.005-.038.007-.058.02-.169.044-.34.069-.51,0-.021.006-.041.009-.061.029-.191.06-.381.093-.565,0-.024.008-.047.012-.071l0-.012.011-.064c.005-.032.011-.063.017-.094.026-.145.054-.286.08-.419s.047-.234.069-.342l.007-.035c0-.017.007-.032.01-.048s.007-.032.01-.048v-.006l.017-.08,0-.007c.005-.025.01-.046.015-.07s.016-.075.024-.109l0-.01c.006-.028.012-.056.018-.082s.016-.071.023-.1h0l.012-.051v0c0-.015.007-.031.01-.045l.021-.088.005-.021,0-.008.006-.025,0-.017v0l0,0-.037.034" transform="translate(-32.394 -126.147)" fill="#efcfa5"/>
    <path id="Path_56319" data-name="Path 56319" d="M157.66,206.281c.284-.1.532-.178.724-.261.385-.164.592-.274.579-.315s-.245-.01-.654.082c-.2.048-.453.09-.738.154-.142.034-.3.054-.461.085s-.335.064-.517.084c-.358.051-.768.1-1.2.148l-.663.054-.708.035a14.9,14.9,0,0,1-3.122-.215,6.516,6.516,0,0,1-1.89-.674l-.02-.012a1.926,1.926,0,0,1,1.523-1.314l-.035-.01-.06-.007c-.174-.022-.327-.042-.459-.06l-.246-.032c-.067-.008-.115-.013-.142-.015a1.369,1.369,0,0,0-1.254.827c-.02.038-.037.078-.056.118a2.385,2.385,0,0,0-.192.8,2.318,2.318,0,0,0,.518,1.638,3.275,3.275,0,0,0,1.379.878,2.39,2.39,0,0,1-1.056-2.041,8.877,8.877,0,0,0,1.871.522,13.483,13.483,0,0,0,3.268.177c.25-.021.493-.039.73-.063l.689-.089c.433-.073.833-.144,1.208-.226.187-.035.361-.086.525-.131s.32-.084.462-.135" transform="translate(-121.915 -167.312)" fill="#efcfa5"/>
    <path id="Path_56320" data-name="Path 56320" d="M196.848,131.182a1.774,1.774,0,0,1,1.285.484,3.149,3.149,0,0,0,.078-.938,3.072,3.072,0,0,0-.217-.995c-.04-.153-.28-.592-.581-.568-.388.024-.659.76-.607,1.645a3.526,3.526,0,0,0,.042.373" transform="translate(-162.06 -105.667)" fill="#59473d"/>
    <path id="Path_56321" data-name="Path 56321" d="M202.848,150.661a.393.393,0,0,0,.15.357c.144.072.324-.085.4-.351.007-.023.012-.046.017-.069h0c.051-.241,0-.474-.131-.539s-.324.085-.4.349a.865.865,0,0,0-.036.253" transform="translate(-167.043 -122.864)" fill="#59473d"/>
    <path id="Path_56322" data-name="Path 56322" d="M186.921,153.256a.9.9,0,0,0,.283.283.6.6,0,0,0,.7.046.266.266,0,0,0,.055-.068.428.428,0,0,0-.056-.439h0a.908.908,0,0,0-.275-.268.61.61,0,0,0-.689-.052.277.277,0,0,0-.062.073.424.424,0,0,0,.049.426h0" transform="translate(-153.852 -125.033)" fill="#59473d"/>
    <path id="Path_56323" data-name="Path 56323" d="M243.914,176.847v-.005l-.017.025.007-.006.009-.013" transform="translate(-200.854 -144.939)" fill="#59473d"/>
    <path id="Path_56324" data-name="Path 56324" d="M161.661,182.547l-.014.013a10.094,10.094,0,0,1-1.268,1.011,18.239,18.239,0,0,1-7.024,2.787h-.016a15.9,15.9,0,0,1-4.374.125,8.705,8.705,0,0,1-2-.474,3.281,3.281,0,0,1-1.379-.878,2.317,2.317,0,0,1-.517-1.638,2.388,2.388,0,0,1,.192-.8c.018-.04.036-.079.055-.118a1.37,1.37,0,0,1,1.254-.827c.027,0,.075.007.142.015l.246.032c.131.018.285.038.459.06l.06.007a20.955,20.955,0,0,0,5.718-.062,17.532,17.532,0,0,0,7.238-2.81q.172-.116.341-.237l1.186-1.774a17.065,17.065,0,0,1-10.577,4.374,20.947,20.947,0,0,1-3.887-.135l-.086-.011c-.258-.033-.468-.063-.619-.082-.075-.009-.136-.016-.181-.019a1.739,1.739,0,0,0-.641.075,2.014,2.014,0,0,0-1.023.772,2.933,2.933,0,0,0-.526,1.656,2.978,2.978,0,0,0,.383,1.509c.011.019.021.039.032.059.031.053.065.1.1.155.048.07.1.138.153.206a5.9,5.9,0,0,0,3.8,1.582,16.221,16.221,0,0,0,4.215-.079c4.584-.828,6.763-2.31,7.77-3.35.073-.076.141-.15.2-.221a3.507,3.507,0,0,0,.582-.874l.008-.019c.015-.036.021-.055.021-.056l-.025.024" transform="translate(-118.913 -145.054)" fill="#59473d"/>
    <path id="Path_56325" data-name="Path 56325" d="M138.123,117.185a1.944,1.944,0,0,0-.462-.174,2.739,2.739,0,0,0-.316-.058l-.118-.012a4.01,4.01,0,0,0-1,.044c-.1.023-.195.049-.287.077a3.17,3.17,0,0,0-1.591,1.039,3.4,3.4,0,0,0-.593,1.126c-.011.033-.02.067-.03.1q-.042.148-.073.29a4.885,4.885,0,0,0-.1.845,3.893,3.893,0,0,0,.016.523c.127-.278.259-.533.4-.771a7.245,7.245,0,0,1,1.08-1.451,5.411,5.411,0,0,1,2.035-1.346,3.583,3.583,0,0,1,1.042-.231" transform="translate(-109.964 -95.589)" fill="#e1b27e"/>
    <path id="Path_56326" data-name="Path 56326" d="M197.153,109.987l-.024-.032a1.356,1.356,0,0,0-.3-.279,1.485,1.485,0,0,0-1.188-.181,2.2,2.2,0,0,0-1,.56,2.43,2.43,0,0,1,2.255.356,3.191,3.191,0,0,1,.318.26,3.924,3.924,0,0,1,.323.337,2.293,2.293,0,0,0-.334-.941c-.017-.027-.036-.054-.056-.08" transform="translate(-160.287 -89.429)" fill="#e1b27e"/>
    <path id="Path_56327" data-name="Path 56327" d="M157.936,140.59q.63-.195,1.362-.36a4.1,4.1,0,0,0,.046-1.35c-.139-1.176-.669-2.077-1.184-2.013s-.82,1.068-.681,2.244a3.856,3.856,0,0,0,.457,1.479" transform="translate(-129.645 -112.01)" fill="#59473d"/>
    <path id="Path_56328" data-name="Path 56328" d="M123.694,8.75l-1.08.244.227,1.981-2.88-1.466-1.185.353.019.021,3.5,3.987.033-.021.045-.028q.163-.1.328-.207l.115-.072q.238-.146.477-.288l-1.486-1.7,2.4,1.176.009-.005.217-.119-.222-1.717,1.091,1.262.013-.006.274-.135.028-.014.044-.022.047-.023.116-.057.023-.011c.129-.062.256-.122.383-.182L123.694,8.75" transform="translate(-97.793 -6.484)" fill="#face56"/>
    <path id="Path_56329" data-name="Path 56329" d="M140.554,10.2l-.007-.063.007.063h0" transform="translate(-115.726 -7.625)" fill="#4d94c3"/>
    <path id="Path_56330" data-name="Path 56330" d="M58.45,8.606l.16-.036a3.162,3.162,0,0,0-.942-.256,7.447,7.447,0,0,0-2.707.265,18.068,18.068,0,0,0-3.488,1.349,36.1,36.1,0,0,0-7.981,5.619c-.937.854-1.81,1.727-2.614,2.6l3.261,3.994c.881-.972,1.841-1.938,2.877-2.883a42.252,42.252,0,0,1,4.192-3.367,32.749,32.749,0,0,1,3.974-2.4l-.566-2.551L54.63,9.5l-.019-.021L55.8,9.122l2.315,1.185L58.047,9.5l.4-.894" transform="translate(-33.629 -6.096)" fill="#4d94c3"/>
    <path id="Path_56331" data-name="Path 56331" d="M138.66,10.135l-.4.894.066.807.565.281-.227-1.981" transform="translate(-113.839 -7.625)" fill="#141c26"/>
    <path id="Path_56332" data-name="Path 56332" d="M135.956,24.646l2.4,1.176-.918.527-1.486-1.7" transform="translate(-111.944 -19.578)" fill="#141c26"/>
    <path id="Path_56333" data-name="Path 56333" d="M149.616,20.874l.222,1.717.869-.455-1.091-1.262" transform="translate(-123.196 -16.471)" fill="#141c26"/>
    <path id="Path_56334" data-name="Path 56334" d="M90.591,16q.222-.009.436,0a5.134,5.134,0,0,1,1.145.146l.059.013h0l.014,0,.035.01.033.01c-.042-.028-.086-.055-.13-.081a5.52,5.52,0,0,0-1.272-.312,13.318,13.318,0,0,0-6.088,1.078l-.236.1-.362.157c-.2.09-.412.185-.624.283l-.092.043c-.127.06-.254.119-.383.182l-.023.011-.116.057-.047.023-.044.022-.028.014-.274.135-.013.006-.008,0-.067.033-.012.006-.05.026c-.142.072-.282.146-.423.22l-.294.157-.016.009-.217.119-.009.005q-.353.2-.7.4l-.073.042-.062.036-.057.034L80.571,19q-.239.143-.477.288l-.115.072q-.165.1-.328.207l-.045.028-.033.021q-.455.291-.9.6-.741.5-1.464,1.042l-.187.141c-1.262.95-2.481,1.97-3.65,3.029-1.233,1.119-2.408,2.281-3.519,3.449-.6.6-1.118,1.142-1.539,1.6a15.3,15.3,0,0,0-1.288,1.486c.008.008.082-.061.214-.193-.109.127-.219.253-.326.38A81.047,81.047,0,0,1,73,25.273c1.334-1.151,2.721-2.259,4.155-3.286h0q.942-.676,1.909-1.3.309-.2.622-.395c.1-.064.208-.127.312-.191l.177-.108.335-.2.328-.192.172-.1c.139-.08.279-.158.419-.235l.251-.138h0c.264-.144.53-.283.8-.42l.067-.034.125-.064.166-.084.062-.032.009,0,.112-.055.024-.011.013-.007.347-.168.063-.031.111-.052.4-.186.109-.051.056-.025.112-.05c.154-.07.308-.139.459-.2s.271-.115.406-.171c.759-.319,1.473-.588,2.136-.8A12.925,12.925,0,0,1,90.591,16" transform="translate(-55.073 -12.233)" fill="#fdfcfb"/>
  </g>
</svg>
