<?xml version="1.0" encoding="utf-8"?>
<!-- Generator: Adobe Illustrator 28.0.0, SVG Export Plug-In . SVG Version: 6.00 Build 0)  -->
<svg version="1.1" id="Layer_1" xmlns="http://www.w3.org/2000/svg" xmlns:xlink="http://www.w3.org/1999/xlink" x="0px" y="0px"
	 viewBox="0 0 408.5 125" style="enable-background:new 0 0 408.5 125;" xml:space="preserve">
<style type="text/css">
	.st0{fill:#FFFFFF;}
	.st1{fill-rule:evenodd;clip-rule:evenodd;fill:#FFFFFF;}
</style>
<path class="st0" d="M132,25.8V12h69.4v13.8h-26.8v81.7H159V25.8H132z"/>
<path class="st0" d="M243.9,94.9l3.9-0.4l0.3,11.3c-10.6,2.1-19.9,3.2-28,3.2c-10.3,0-17.7-2.8-22.2-8.5c-4.4-5.7-6.7-14.7-6.7-27.2
	c0-24.7,10-37.1,30.1-37.1c19.4,0,29.2,10.6,29.2,31.9l-1,10.9h-43c0.1,5.8,1.3,10,3.7,12.7s6.9,4,13.5,4
	C230.2,95.8,237,95.5,243.9,94.9z M235.6,67.3c0-6.9-1.1-11.7-3.3-14.4c-2.1-2.8-5.8-4.2-11-4.2s-9,1.4-11.4,4.3
	c-2.3,2.9-3.5,7.6-3.6,14.2h29.3V67.3z"/>
<path class="st0" d="M258.1,107.5V37.8h15v8.4c7.9-5.1,15.7-8.4,23.6-9.9v15.2c-8,1.6-14.8,3.6-20.4,6.1l-3.1,1.3v48.6
	C273.2,107.5,258.1,107.5,258.1,107.5z"/>
<path class="st0" d="M301.3,107.5V37.8h15v8.4c7.9-5.1,15.7-8.4,23.6-9.9v15.2c-8,1.6-14.8,3.6-20.4,6.1l-3.1,1.3v48.6
	C316.4,107.5,301.3,107.5,301.3,107.5z"/>
<path class="st0" d="M395.9,59.2V91c0.1,2,0.6,3.6,1.5,4.6c1,0.9,2.5,1.5,4.6,1.8l-0.4,11.6c-8,0-14.1-1.7-18.5-5.2
	c-7.4,3.4-14.9,5.2-22.4,5.2c-13.8,0-20.7-7.4-20.7-22.2c0-7.1,1.9-12.2,5.6-15.3c3.8-3.2,9.6-5.1,17.4-5.7l17.9-1.5v-5
	c0-3.7-0.8-6.3-2.5-7.8c-1.6-1.5-3.9-2.2-7.1-2.2c-5.9,0-13.3,0.4-22.2,1.1l-4.4,0.3L344.1,40c10.1-2.4,19.3-3.6,27.8-3.6
	s14.6,1.9,18.3,5.6C394,45.4,395.9,51.3,395.9,59.2z M364.8,76.5c-6.4,0.6-9.6,4-9.6,10.5c0,6.4,2.8,9.6,8.5,9.6
	c4.6,0,9.5-0.7,14.7-2.2l2.5-0.8V75L364.8,76.5z"/>
<path class="st1" d="M90,4c12.1,0,22.2,8.6,24.5,20c0.3,1.6,0.5,3.3,0.5,5v64c0,13.8-11.2,25-25,25H26c-2.7,0-5.4-0.4-7.8-1.2
	C8.2,113.5,1,104.1,1,93V29C1,15.2,12.2,4,26,4H90z M79.9,12H90c8.3,0,15.2,5.9,16.7,13.8c-4.8,0.5-10.3,0-16.1-2.4
	C85.4,21.1,82,17,79.9,12z M56.1,12h15.2c2.5,7.6,7.4,14.9,16.1,18.7c7,3,13.7,3.7,19.6,3.1V42c-8,2.5-16,3.6-22.4,1.7
	c-3.2-0.9-6.8-3.4-10.7-7.3c-3.9-3.8-7.7-8.7-11.4-14.1C60.3,18.9,58.1,15.4,56.1,12z M46.9,12H36.3c0.5,9.1-1.7,20.1-9.6,31.3
	C21.5,50.7,15.3,54.8,9,56.6v15.9c3.8-2.3,8.3-5.4,13.5-9.7c12.3-10,22.1-14,29.4-14.8c7.3-0.7,12.5,1.8,14.8,5
	c2.4,3.4,3.8,7.9,4.3,12.7c0.5,4.8,0.2,10.2-1,15.6C67.6,92,61.5,103.1,50.4,109c-0.6,0.3-1.2,0.7-1.8,1H61
	c4.9-6.2,8.8-12.3,10.2-17.1c1.6-5.4,2.2-11.2,2.8-16.6l0,0l0,0c0.2-1.9,0.4-3.8,0.7-5.6c0.4-3.1,1-6.4,2.3-8.8
	c0.7-1.3,1.7-2.7,3.5-3.5c1.8-0.9,3.7-0.8,5.3-0.2c4.6,1.5,10.8,1.9,21.2-0.8v-7.1c-8.1,2.3-16.8,3.3-24.6,1c-5-1.5-9.8-5-14.1-9.3
	c-4.4-4.3-8.5-9.7-12.4-15.3C52.7,21.9,49.6,16.9,46.9,12z M107,65.7C97.1,68,89.9,67.9,83.8,66c-0.4,1-0.9,2.9-1.3,5.8
	c-0.2,1.4-0.4,3.1-0.6,4.8l0,0c-0.6,5.5-1.4,12.3-3.2,18.5c-1.4,4.7-4.3,9.9-7.8,14.9h8c1.5-3.7,2.9-7.2,3.9-10.2
	c1.2-3.2,1.9-5.5,2.1-6.6c0.4-2.2,1.3-4.6,3.3-6.3c2.1-1.8,4.6-2.1,6.9-2s5.1,0.7,8.1,1.6c1.1,0.3,2.3,0.7,3.6,1.1V65.7H107z
	 M106.7,96c-2.1-0.7-3.9-1.3-5.6-1.7c-3-0.9-5-1.3-6.3-1.3c-0.9,0-1.2,0.1-1.3,0.1c-0.1,0.1-0.3,0.5-0.6,1.7
	c-0.4,1.8-1.3,4.7-2.4,7.8c-0.8,2.2-1.8,4.8-2.8,7.4H90C98.4,110,105.3,103.9,106.7,96z M31.3,110c5.2-2.7,10.5-5.5,15.3-8
	c8.4-4.5,13.5-13.2,15.6-22.4c1-4.5,1.3-9,0.9-12.9c-0.4-4-1.5-7-2.8-8.9c-0.2-0.3-2.2-2.2-7.5-1.7s-13.5,3.5-25.2,13
	C20.2,75,14.1,79.1,9,81.8v9c1.3-1.2,2.7-2.1,4-2.9s2.8-1.7,4.2-2.5l0.4-0.2c1.3-0.8,2.7-1.5,4-2.3c2.9-1.7,5.5-3.5,7.5-5.7
	c3.5-3.6,8.5-8,13.2-11c2.3-1.5,4.8-2.8,7.2-3.4c2.2-0.6,5.7-0.8,8.1,2c2.3,2.6,3.2,6.5,1.6,11.6c-1.6,4.8-5.5,10.9-13.2,18.8
	c-8,8.2-15.9,12.3-22.6,13.6c-0.8,0.1-1.5,0.3-2.2,0.3c1.6,0.5,3.2,0.7,5,0.7h5.1C31.3,109.8,31.3,110,31.3,110z M9,48.2
	c3.9-1.6,7.7-4.5,11.2-9.5c6.9-9.8,8.6-19.2,8.1-26.7H26c-9.4,0-17,7.6-17,17V48.2z M93.5,93C93.5,93.1,93.5,93.1,93.5,93
	C93.5,93.1,93.5,93.1,93.5,93L93.5,93L93.5,93z M46.5,73c-4,2.5-8.5,6.4-11.6,9.7c-2.7,2.9-6.1,5.1-9.2,7c-1.4,0.9-2.9,1.7-4.2,2.4
	l-0.4,0.2c-1.5,0.8-2.8,1.6-3.9,2.3c-2.5,1.6-3.5,2.6-3.9,3.3c-0.1,0.2-0.1,0.3-0.1,0.5s0.2,0.8,0.9,1.7l0.1,0.1l0.1,0.1
	c0,0,0.1,0.1,0.4,0.3c0.3,0.2,0.8,0.4,1.4,0.5c1.3,0.3,3.2,0.4,5.6-0.1c4.8-0.9,11.3-4.1,18.4-11.4C47.4,82,50.4,77,51.4,73.9
	c0.6-1.9,0.5-2.9,0.3-3.4c-0.1,0-0.2,0-0.4,0.1C50.3,71,48.6,71.7,46.5,73z M52.2,70.6L52.2,70.6C52.2,70.5,52.2,70.6,52.2,70.6z"/>
</svg>
