<?xml version="1.0" encoding="utf-8"?>
<!-- Generator: Adobe Illustrator 28.0.0, SVG Export Plug-In . SVG Version: 6.00 Build 0)  -->
<svg version="1.1" id="Layer_1" xmlns="http://www.w3.org/2000/svg" xmlns:xlink="http://www.w3.org/1999/xlink" x="0px" y="0px"
	 viewBox="0 0 296.1 90.4" style="enable-background:new 0 0 296.1 90.4;" xml:space="preserve">
<style type="text/css">
	.st0{fill:#FFFFFF;}
	.st1{fill-rule:evenodd;clip-rule:evenodd;fill:#FFFFFF;}
</style>
<path class="st0" d="M141.5,55.2v29.3h9.5V53.3c0-3.9-0.8-7.4-2.5-10.5c-1.7-3-4-5.4-7-7.1c-2.9-1.7-6.2-2.5-10-2.5
	s-7.2,0.9-10.2,2.6c-2.3,1.3-4.2,2.9-5.7,4.9V9h-9.5v75.4h9.5V55.2c0-2.5,0.6-4.8,1.7-6.8s2.7-3.5,4.6-4.6c2-1.1,4.2-1.7,6.8-1.7
	c3.8,0,6.9,1.2,9.3,3.7C140.3,48.2,141.5,51.4,141.5,55.2z"/>
<path class="st0" d="M167.7,82.7c3.3,1.8,7,2.7,11.2,2.7s7.9-0.9,11.1-2.7c3.2-1.9,5.8-4.5,7.6-7.8s2.7-7.1,2.7-11.5V34.3h-9.5V63
	c0,4.2-1.1,7.4-3.2,9.8c-2.1,2.3-5,3.5-8.8,3.5c-2.5,0-4.6-0.5-6.4-1.6c-1.8-1.1-3.2-2.6-4.2-4.5c-0.9-2-1.4-4.4-1.4-7.2V34.3h-9.5
	v29.1c0,4.4,0.9,8.2,2.7,11.5C161.9,78.2,164.5,80.8,167.7,82.7z"/>
<path class="st1" d="M231,85.5c-5,0-9.5-1.1-13.5-3.4s-7.2-5.5-9.5-9.4s-3.5-8.4-3.5-13.4c0-4.9,1.1-9.4,3.4-13.3
	c2.3-3.9,5.4-7,9.3-9.3c3.9-2.3,8.3-3.5,13.2-3.5c4.6,0,8.7,1.1,12.2,3.2c3.6,2.1,6.4,5,8.3,8.8c2,3.7,3.1,8,3.1,12.7
	c0,0.7,0,1.5-0.1,2.3s-0.2,1.7-0.4,2.7h-39.3c0.3,2,0.9,3.7,1.8,5.4c1.4,2.6,3.4,4.6,6,6.1c2.6,1.4,5.6,2.1,9,2.1
	c2.8,0,5.4-0.5,7.7-1.5c2.4-1,4.4-2.5,6.1-4.4l6.1,6.2c-2.4,2.8-5.4,5-8.9,6.4C238.7,84.8,235,85.5,231,85.5z M215.9,50
	c-0.8,1.5-1.3,3.1-1.7,5h30.5c-0.3-2.1-0.8-3.9-1.6-5.5c-1.2-2.4-2.9-4.2-5.1-5.5c-2.2-1.3-4.8-2-7.9-2c-3.2,0-6.1,0.7-8.6,2.1
	C219.2,45.5,217.3,47.5,215.9,50z"/>
<path class="st0" d="M260.2,81.3c2.1,1.3,4.4,2.4,6.9,3.2c2.5,0.7,5.2,1.1,8,1.1c5.6,0,10.1-1.4,13.4-4.1c3.4-2.7,5.1-6.5,5.1-11.2
	c0-3.1-0.7-5.6-2-7.5s-2.9-3.4-5-4.5c-2-1.1-4.2-2-6.4-2.6c-2.3-0.7-4.4-1.4-6.5-2c-2-0.6-3.7-1.4-5-2.3c-1.3-0.9-1.9-2.2-1.9-3.9
	s0.7-3,2.1-3.9c1.5-1,3.6-1.5,6.3-1.5c2.6,0,4.9,0.5,7,1.5s3.9,2.4,5.3,4.2l6.1-6.1c-2-2.7-4.5-4.8-7.6-6.1c-3-1.4-6.5-2.1-10.5-2.1
	c-3.7,0-6.9,0.6-9.6,1.8c-2.6,1.2-4.6,2.9-6.1,5.2c-1.5,2.2-2.2,4.8-2.2,7.8s0.6,5.5,1.9,7.3s3,3.3,5.1,4.3c2,1.1,4.2,1.9,6.4,2.6
	c2.3,0.6,4.5,1.3,6.5,2c2,0.6,3.7,1.5,5,2.5s2,2.4,2,4.2c0,1.8-0.8,3.3-2.4,4.3s-3.9,1.5-6.9,1.5s-5.6-0.5-8-1.6s-4.5-2.8-6.3-5.1
	l-6.1,6.1C256.3,78.2,258.1,79.9,260.2,81.3z"/>
<path class="st0" d="M284.7,17.4v1.9h-2.3V25h-2.1v-5.7H278v-1.9H284.7z"/>
<path class="st0" d="M293.5,17.3V25h-2.1v-3.7l-1.6,1.8h-0.6l-1.6-1.8V25h-2.1v-7.7h0.8l3.3,3.3l3.3-3.3H293.5z"/>
<path class="st0" d="M14.9,29.7c3,9.5,13.1,14.8,22.5,11.8c9.5-3,32-18.4,29-27.9S36.2,4.2,26.7,7.1C17.2,10.2,12,20.2,14.9,29.7z"
	/>
<path class="st0" d="M9.2,81.8c5.6,5.6,14.6,5.6,20.2,0s15.7-24.7,10.1-30.3C33.9,46,14.7,56,9.2,61.6C3.6,67.2,3.6,76.2,9.2,81.8z"
	/>
<path class="st0" d="M62.5,87.3c9.6,2.6,19.5-3.1,22-12.7c2.6-9.6,1.5-36.9-8.1-39.4c-9.6-2.6-24.1,20.5-26.7,30.1
	C47.2,74.8,52.9,84.7,62.5,87.3z"/>
</svg>
