<?xml version="1.0" encoding="utf-8"?>
<!-- Generator: Adobe Illustrator 28.0.0, SVG Export Plug-In . SVG Version: 6.00 Build 0)  -->
<svg version="1.1" id="Layer_1" xmlns="http://www.w3.org/2000/svg" xmlns:xlink="http://www.w3.org/1999/xlink" x="0px" y="0px"
	 viewBox="0 0 243.9 76.7" style="enable-background:new 0 0 243.9 76.7;" xml:space="preserve">
<style type="text/css">
	.st0{fill:#FFFFFF;}
	.st1{fill-rule:evenodd;clip-rule:evenodd;fill:#FFFFFF;}
</style>
<path class="st0" d="M145.5,67.8c0,0.8,0.7,1.4,1.5,1.4l11.9-0.6c0.7,0,1.3-0.7,1.3-1.4V29.7c0-0.8-0.7-1.4-1.5-1.4l-11.9,0.5
	c-0.8,0-1.3,0.6-1.3,1.4V67.8z"/>
<path class="st0" d="M147.4,21.3c1.5,1.5,3.3,2.2,5.5,2.2c2.3,0,4.1-0.7,5.5-2.2c1.5-1.5,2.2-3.4,2.2-5.6s-0.7-4-2.2-5.5
	c-1.4-1.5-3.2-2.3-5.5-2.3c-2.2,0-4,0.8-5.5,2.3s-2.2,3.4-2.2,5.5C145.2,17.9,145.9,19.8,147.4,21.3z"/>
<path class="st1" d="M110.2,45.2v20.4c0,0.7-0.5,1.3-1.1,1.4l-12.2,2.3c-0.9,0.2-1.7-0.5-1.7-1.4V11.2c0-0.8,0.6-1.4,1.4-1.4h23.9
	c4,0,7.5,0.8,10.6,2.3s5.5,3.6,7.2,6.2s2.6,5.7,2.6,9.2s-0.9,6.6-2.7,9.3c-1.7,2.6-4.2,4.7-7.3,6.2c-1.4,0.6-2.8,1.1-4.4,1.5
	l15.9,21.7c0.8,1.1-0.2,2.5-1.5,2.2l-13.2-3.2c-0.3-0.1-0.6-0.2-0.8-0.5l-15.8-19.5C111.1,45.2,110.2,45.2,110.2,45.2z M110.2,34.5
	h8.2c2.5,0,4.3-0.6,5.6-1.8c1.3-1.2,2-2.9,2-4.9s-0.7-3.6-2-4.9s-3.2-1.9-5.6-1.9h-8.2V34.5z"/>
<path class="st0" d="M180.1,70.5c-2.5,0-5-0.3-7.5-1c-2.4-0.7-4.7-1.6-6.8-2.7c-1.6-0.9-3.1-1.9-4.3-3.1c-0.6-0.5-0.6-1.4,0-1.9
	l6-6.1c0.6-0.6,1.5-0.6,2.1,0c1.1,0.9,2.3,1.7,3.7,2.3c1.9,0.8,3.9,1.2,6,1.2c1.2,0,2.2-0.2,2.8-0.5c0.7-0.3,1-0.8,1-1.4
	c0-0.9-0.5-1.6-1.4-2c-0.9-0.5-2.1-0.9-3.6-1.3c-1.5-0.4-3-0.8-4.6-1.3c-1.6-0.6-3.2-1.3-4.7-2.2s-2.7-2.2-3.7-3.8
	c-0.9-1.6-1.3-3.7-1.3-6.2c0-2.6,0.7-4.9,2.1-6.9c1.5-2,3.5-3.6,6-4.7c2.6-1.2,5.6-1.8,9.1-1.8s6.9,0.6,10.1,1.8
	c2.7,1,5.4,2.9,7.4,5c0.5,0.6,0.4,1.5-0.2,2l-6.9,5.3c-0.6,0.4-1.4,0.4-2-0.1c-1-0.9-1.9-1.3-3.1-1.7c-1.6-0.6-3.1-0.9-4.4-0.9
	c-1.3,0-2.2,0.2-2.8,0.6c-0.6,0.3-0.8,0.8-0.8,1.4c0,0.7,0.4,1.3,1.3,1.8c1,0.4,2.2,0.9,3.6,1.3c1.5,0.3,3,0.8,4.6,1.3
	c1.6,0.6,3.2,1.3,4.6,2.3c1.5,1,2.7,2.2,3.6,3.9c1,1.6,1.4,3.7,1.4,6.3c0,4.1-1.6,7.3-4.7,9.7C189.6,69.3,185.4,70.5,180.1,70.5z"/>
<path class="st1" d="M208.3,67.5c3.5,1.8,7.6,2.7,12.2,2.7c3.6,0,6.9-0.6,9.7-1.8c2.5-1,4.6-2.4,6.5-4.2c0.5-0.5,0.5-1.4,0-1.9
	l-5.6-5.6c-0.6-0.6-1.5-0.5-2.1,0c-1,0.9-2,1.5-3.1,2c-1.5,0.7-3.3,1-5.3,1c-2.1,0-3.9-0.4-5.4-1.3c-1.5-0.8-2.6-2.1-3.4-3.7
	c-0.2-0.4-0.4-0.8-0.5-1.3l27.7-0.1c0.6,0,1.2-0.4,1.3-1.1c0.1-0.7,0.2-1.3,0.3-1.9c0.1-0.9,0.2-1.8,0.2-2.6c0-4-0.9-7.5-2.8-10.6
	c-1.8-3.1-4.3-5.6-7.5-7.3c-3.2-1.8-6.8-2.7-11-2.7s-8.1,1-11.5,2.9c-3.4,1.8-6,4.4-8,7.6s-2.9,6.8-2.9,11s1,7.9,3,11.2
	C202.1,63.1,204.8,65.7,208.3,67.5z M211.3,44.1c0.1-0.4,0.3-0.8,0.5-1.2c0.7-1.6,1.8-2.9,3.1-3.8c1.3-0.9,2.9-1.3,4.8-1.3
	c1.8,0,3.3,0.4,4.4,1.2c1.2,0.8,2.1,1.9,2.7,3.4c0.2,0.5,0.4,1,0.5,1.6L211.3,44.1z"/>
<path class="st0" d="M223.4,21.5V10.6h2.8v10.8L223.4,21.5L223.4,21.5z M220.1,12.9v-2.4h9.4v2.4H220.1z M230,21.5V10.6h2l4.2,6.3
	h-0.9l4.2-6.3h2v10.9h-2.7v-6.3l0.4,0.1l-2.5,3.8h-1.8l-2.5-3.8l0.4-0.1v6.3H230z"/>
<path class="st0" d="M23.5,4.8c0-0.8,0.6-1.5,1.4-1.6l10-1.2c1-0.1,1.9,0.6,1.9,1.6v32.6c0,1-0.9,1.8-1.9,1.6L25,36.6
	c-0.8-0.1-1.4-0.8-1.4-1.6V4.8H23.5z"/>
<path class="st0" d="M3.7,9c0-0.8,0.6-1.5,1.4-1.6L15,6.2c1-0.1,1.9,0.6,1.9,1.6v26c0,1-0.9,1.8-1.9,1.6l-9.9-1.2
	c-0.8-0.1-1.4-0.8-1.4-1.6C3.7,32.6,3.7,9,3.7,9z"/>
<path class="st0" d="M55.3,4.7c0.7,0.2,1.2,0.8,1.2,1.6v13.8c0,0.8-0.6,1.5-1.4,1.6l-9.9,1.2c-1,0.1-1.9-0.6-1.9-1.6V3.8
	c0-1.1,1-1.9,2.1-1.6L55.3,4.7z"/>
<path class="st0" d="M74.7,10.4c0-0.8-0.5-1.4-1.2-1.6l-9.9-2.5c-1-0.3-2.1,0.5-2.1,1.6v12.5c0,1,0.9,1.8,1.9,1.6l9.9-1.2
	c0.8-0.1,1.4-0.8,1.4-1.6C74.7,19.2,74.7,10.4,74.7,10.4z"/>
<path class="st0" d="M74.7,27.3l-32.2,0.8C43,34.2,48,38.9,54.1,38.9h7.4v7L3.7,40.5v34.4l71-5V27.3z"/>
</svg>
