<?xml version="1.0" encoding="utf-8"?>
<!-- Generator: Adobe Illustrator 28.0.0, SVG Export Plug-In . SVG Version: 6.00 Build 0)  -->
<svg version="1.1" id="Layer_1" xmlns="http://www.w3.org/2000/svg" xmlns:xlink="http://www.w3.org/1999/xlink" x="0px" y="0px"
	 viewBox="0 0 316.4 90" style="enable-background:new 0 0 316.4 90;" xml:space="preserve">
<style type="text/css">
	.st0{fill:#FFFFFF;}
</style>
<path class="st0" d="M126.5,26.1v55.5H113V58.8H92v22.8H78.4V26.1H92v21.7h21V26.1H126.5z"/>
<path class="st0" d="M139.9,32.9c-2.4,0-4.3-0.7-5.8-2.1s-2.2-3.2-2.2-5.2c0-2.1,0.7-3.8,2.2-5.2c1.5-1.4,3.5-2.1,5.8-2.1
	s4.2,0.7,5.7,2.1s2.3,3.1,2.3,5.2s-0.8,3.8-2.3,5.2C144.1,32.2,142.2,32.9,139.9,32.9z M146.6,37.5v44.1h-13.5V37.5H146.6z"/>
<path class="st0" d="M177.8,70.2v11.5H171c-4.9,0-8.7-1.2-11.5-3.6c-2.7-2.4-4.1-6.4-4.1-11.8V48.7H150V37.5h5.4V26.8h13.5v10.8h8.9
	v11.2h-8.9v17.7c0,1.3,0.3,2.3,0.9,2.8c0.6,0.6,1.7,0.9,3.2,0.9C173,70.2,177.8,70.2,177.8,70.2z"/>
<path class="st0" d="M223.8,58.9c0,1.3-0.1,2.6-0.2,4H193c0.2,2.7,1.1,4.8,2.6,6.3c1.6,1.4,3.5,2.1,5.8,2.1c3.4,0,5.7-1.4,7-4.3
	h14.4c-0.7,2.9-2.1,5.5-4,7.8s-4.3,4.1-7.2,5.5c-2.9,1.3-6.1,2-9.7,2c-4.3,0-8.2-0.9-11.5-2.8c-3.4-1.8-6-4.5-7.9-7.9
	s-2.8-7.4-2.8-12s0.9-8.6,2.8-12c1.9-3.4,4.5-6.1,7.9-7.9c3.4-1.8,7.2-2.8,11.6-2.8c4.3,0,8.1,0.9,11.4,2.7c3.3,1.8,5.9,4.3,7.7,7.7
	C222.9,50.6,223.8,54.4,223.8,58.9z M210,55.3c0-2.3-0.8-4.2-2.4-5.5c-1.6-1.4-3.6-2.1-5.9-2.1c-2.3,0-4.2,0.7-5.8,2
	c-1.5,1.3-2.5,3.2-2.8,5.6H210z"/>
<path class="st0" d="M225.1,59.6c0-4.6,0.9-8.6,2.8-12c1.9-3.4,4.5-6.1,7.8-7.9c3.4-1.8,7.2-2.8,11.5-2.8c5.5,0,10.1,1.4,13.8,4.3
	c3.7,2.9,6.2,7,7.4,12.3H254c-1.2-3.4-3.6-5.1-7-5.1c-2.5,0-4.5,1-5.9,2.9c-1.5,1.9-2.2,4.6-2.2,8.2s0.7,6.4,2.2,8.3
	s3.5,2.8,5.9,2.8c3.5,0,5.8-1.7,7-5.1h14.4c-1.2,5.2-3.6,9.2-7.4,12.2c-3.7,3-8.4,4.4-13.8,4.4c-4.3,0-8.2-0.9-11.5-2.8
	c-3.3-1.8-5.9-4.5-7.8-7.9C226,68.2,225.1,64.2,225.1,59.6z"/>
<path class="st0" d="M299.6,37c5.1,0,9.1,1.7,12.2,5.1c3.1,3.3,4.6,7.9,4.6,13.8v25.8H303v-24c0-3-0.8-5.2-2.3-6.9
	c-1.5-1.6-3.6-2.5-6.2-2.5s-4.6,0.8-6.2,2.5c-1.5,1.6-2.3,3.9-2.3,6.9v24h-13.5V23.1H286v20.3c1.4-2,3.2-3.5,5.6-4.7
	C294,37.6,296.6,37,299.6,37z"/>
<path class="st0" d="M8.4,52.6v-48h16v24.7c2.8-1.1,5.8-1.7,9-1.7c13.8,0,25,11.2,25,25v29h-16v-29c0-5-4-9-9-9s-9,4-9,9l0,0v29h-16
	L8.4,52.6L8.4,52.6z"/>
<path class="st0" d="M42.4,20.6v-16h16v16H42.4z"/>
</svg>
